<?xml version="1.0" encoding="UTF-8" standalone="no"?>
<!-- Generator: Adobe Illustrator 19.0.0, SVG Export Plug-In . SVG Version: 6.00 Build 0)  -->

<svg
   xmlns:dc="http://purl.org/dc/elements/1.1/"
   xmlns:cc="http://creativecommons.org/ns#"
   xmlns:rdf="http://www.w3.org/1999/02/22-rdf-syntax-ns#"
   xmlns:svg="http://www.w3.org/2000/svg"
   xmlns="http://www.w3.org/2000/svg"
   xmlns:sodipodi="http://sodipodi.sourceforge.net/DTD/sodipodi-0.dtd"
   xmlns:inkscape="http://www.inkscape.org/namespaces/inkscape"
   version="1.1"
   id="Capa_1"
   x="0px"
   y="0px"
   viewBox="0 0 512.00001 512.00001"
   xml:space="preserve"
   sodipodi:docname="add-file.svg"
   width="512"
   height="512"
   inkscape:version="0.92.4 5da689c313, 2019-01-14"><metadata
   id="metadata45"><rdf:RDF><cc:Work
       rdf:about=""><dc:format>image/svg+xml</dc:format><dc:type
         rdf:resource="http://purl.org/dc/dcmitype/StillImage" /></cc:Work></rdf:RDF></metadata><defs
   id="defs43" /><sodipodi:namedview
   pagecolor="#ffffff"
   bordercolor="#666666"
   borderopacity="1"
   objecttolerance="10"
   gridtolerance="10"
   guidetolerance="10"
   inkscape:pageopacity="0"
   inkscape:pageshadow="2"
   inkscape:window-width="1366"
   inkscape:window-height="715"
   id="namedview41"
   showgrid="false"
   inkscape:zoom="0.34070479"
   inkscape:cx="-318.58668"
   inkscape:cy="613.6938"
   inkscape:window-x="0"
   inkscape:window-y="0"
   inkscape:window-maximized="1"
   inkscape:current-layer="Capa_1" />
<g
   id="g8"
   transform="scale(1.0453246)">
	<g
   id="g6">
		<path
   d="M 438.2,0 H 51.6 C 23.1,0 0,23.2 0,51.6 v 386.6 c 0,28.5 23.2,51.6 51.6,51.6 h 386.6 c 28.5,0 51.6,-23.2 51.6,-51.6 V 51.6 C 489.8,23.2 466.6,0 438.2,0 Z m 27.1,438.2 c 0,14.9 -12.2,27.1 -27.1,27.1 H 51.6 c -14.9,0 -27.1,-12.2 -27.1,-27.1 V 51.6 c 0,-14.9 12.2,-27.1 27.1,-27.1 h 386.6 c 14.9,0 27.1,12.2 27.1,27.1 z"
   id="path2"
   inkscape:connector-curvature="0" />
		<path
   d="m 337.4,232.7 h -80.3 v -80.3 c 0,-6.8 -5.5,-12.3 -12.3,-12.3 -6.8,0 -12.3,5.5 -12.3,12.3 v 80.3 h -80.3 c -6.8,0 -12.3,5.5 -12.3,12.2 0,6.8 5.5,12.3 12.3,12.3 h 80.3 v 80.3 c 0,6.8 5.5,12.3 12.3,12.3 6.8,0 12.3,-5.5 12.3,-12.3 v -80.3 h 80.3 c 6.8,0 12.3,-5.5 12.3,-12.3 0,-6.8 -5.5,-12.2 -12.3,-12.2 z"
   id="path4"
   inkscape:connector-curvature="0" />
	</g>
</g>
<g
   id="g10"
   transform="translate(-5.46e-6,22.199995)">
</g>
<g
   id="g12"
   transform="translate(-5.46e-6,22.199995)">
</g>
<g
   id="g14"
   transform="translate(-5.46e-6,22.199995)">
</g>
<g
   id="g16"
   transform="translate(-5.46e-6,22.199995)">
</g>
<g
   id="g18"
   transform="translate(-5.46e-6,22.199995)">
</g>
<g
   id="g20"
   transform="translate(-5.46e-6,22.199995)">
</g>
<g
   id="g22"
   transform="translate(-5.46e-6,22.199995)">
</g>
<g
   id="g24"
   transform="translate(-5.46e-6,22.199995)">
</g>
<g
   id="g26"
   transform="translate(-5.46e-6,22.199995)">
</g>
<g
   id="g28"
   transform="translate(-5.46e-6,22.199995)">
</g>
<g
   id="g30"
   transform="translate(-5.46e-6,22.199995)">
</g>
<g
   id="g32"
   transform="translate(-5.46e-6,22.199995)">
</g>
<g
   id="g34"
   transform="translate(-5.46e-6,22.199995)">
</g>
<g
   id="g36"
   transform="translate(-5.46e-6,22.199995)">
</g>
<g
   id="g38"
   transform="translate(-5.46e-6,22.199995)">
</g>
</svg>