<?xml version="1.0" encoding="UTF-8" standalone="no"?>
<!-- Generator: Adobe Illustrator 19.0.0, SVG Export Plug-In . SVG Version: 6.00 Build 0)  -->

<svg
   xmlns:dc="http://purl.org/dc/elements/1.1/"
   xmlns:cc="http://creativecommons.org/ns#"
   xmlns:rdf="http://www.w3.org/1999/02/22-rdf-syntax-ns#"
   xmlns:svg="http://www.w3.org/2000/svg"
   xmlns="http://www.w3.org/2000/svg"
   xmlns:sodipodi="http://sodipodi.sourceforge.net/DTD/sodipodi-0.dtd"
   xmlns:inkscape="http://www.inkscape.org/namespaces/inkscape"
   version="1.1"
   id="Capa_1"
   x="0px"
   y="0px"
   viewBox="0 0 512 512"
   xml:space="preserve"
   sodipodi:docname="command.svg"
   width="512"
   height="512"
   inkscape:version="0.92.4 5da689c313, 2019-01-14"><metadata
   id="metadata57"><rdf:RDF><cc:Work
       rdf:about=""><dc:format>image/svg+xml</dc:format><dc:type
         rdf:resource="http://purl.org/dc/dcmitype/StillImage" /></cc:Work></rdf:RDF></metadata><defs
   id="defs55" /><sodipodi:namedview
   pagecolor="#ffffff"
   bordercolor="#666666"
   borderopacity="1"
   objecttolerance="10"
   gridtolerance="10"
   guidetolerance="10"
   inkscape:pageopacity="0"
   inkscape:pageshadow="2"
   inkscape:window-width="1366"
   inkscape:window-height="715"
   id="namedview53"
   showgrid="false"
   inkscape:zoom="0.4609375"
   inkscape:cx="-427.71486"
   inkscape:cy="192.98307"
   inkscape:window-x="0"
   inkscape:window-y="0"
   inkscape:window-maximized="1"
   inkscape:current-layer="Capa_1" />

















<g
   transform="matrix(16.209713,0,0,18.910434,0,-42.643029)"
   id="g38"><path
     d="M 29.328,2.255 H 2.256 C 1.01,2.255 0,3.264 0,4.51 v 22.564 c 0,1.245 1.01,2.256 2.256,2.256 h 27.072 c 1.244,0 2.258,-1.012 2.258,-2.256 V 4.51 c 0,-1.246 -1.014,-2.255 -2.258,-2.255 z M 7.333,3.949 c 0.622,0 1.128,0.502 1.128,1.128 0,0.623 -0.506,1.125 -1.128,1.125 -0.626,0 -1.131,-0.502 -1.131,-1.125 0,-0.626 0.505,-1.128 1.131,-1.128 z m -3.386,0 c 0.623,0 1.127,0.502 1.127,1.128 C 5.074,5.7 4.57,6.202 3.947,6.202 3.323,6.202 2.818,5.7 2.818,5.077 2.818,4.451 3.323,3.949 3.947,3.949 Z M 29.328,27.075 H 2.256 V 7.92 h 27.072 c 0,0 0,19.155 0,19.155 z"
     id="path2"
     inkscape:connector-curvature="0" /><polygon
     points="12.645,13.943 12.645,12.556 5.4,9.243 5.4,10.84 11.003,13.235 11.003,13.266 5.4,15.66 5.4,17.256 "
     id="polygon4" /><rect
     x="16.056"
     y="12.488"
     width="3.9460001"
     height="1.522"
     id="rect6" /><g
     id="g8" /><g
     id="g10" /><g
     id="g12" /><g
     id="g14" /><g
     id="g16" /><g
     id="g18" /><g
     id="g20" /><g
     id="g22" /><g
     id="g24" /><g
     id="g26" /><g
     id="g28" /><g
     id="g30" /><g
     id="g32" /><g
     id="g34" /><g
     id="g36" /></g></svg>