<?xml version="1.0" encoding="UTF-8" standalone="no"?>
<!-- Generator: Adobe Illustrator 19.0.0, SVG Export Plug-In . SVG Version: 6.00 Build 0)  -->

<svg
   xmlns:dc="http://purl.org/dc/elements/1.1/"
   xmlns:cc="http://creativecommons.org/ns#"
   xmlns:rdf="http://www.w3.org/1999/02/22-rdf-syntax-ns#"
   xmlns:svg="http://www.w3.org/2000/svg"
   xmlns="http://www.w3.org/2000/svg"
   xmlns:sodipodi="http://sodipodi.sourceforge.net/DTD/sodipodi-0.dtd"
   xmlns:inkscape="http://www.inkscape.org/namespaces/inkscape"
   version="1.1"
   id="Capa_1"
   x="0px"
   y="0px"
   viewBox="0 0 512 427.49515"
   xml:space="preserve"
   sodipodi:docname="configure.svg"
   width="512"
   height="427.49515"
   inkscape:version="0.92.4 5da689c313, 2019-01-14"><metadata
   id="metadata57"><rdf:RDF><cc:Work
       rdf:about=""><dc:format>image/svg+xml</dc:format><dc:type
         rdf:resource="http://purl.org/dc/dcmitype/StillImage" /></cc:Work></rdf:RDF></metadata><defs
   id="defs55" /><sodipodi:namedview
   pagecolor="#ffffff"
   bordercolor="#666666"
   borderopacity="1"
   objecttolerance="10"
   gridtolerance="10"
   guidetolerance="10"
   inkscape:pageopacity="0"
   inkscape:pageshadow="2"
   inkscape:window-width="1366"
   inkscape:window-height="715"
   id="namedview53"
   showgrid="false"
   inkscape:zoom="0.32593203"
   inkscape:cx="-1054.7054"
   inkscape:cy="68.74259"
   inkscape:window-x="0"
   inkscape:window-y="0"
   inkscape:window-maximized="1"
   inkscape:current-layer="Capa_1" />

















<path
   inkscape:connector-curvature="0"
   style="fill:currentColor;fill-opacity:1;stroke:none;stroke-width:21.35403633"
   d="M 309.33333,0 A 74.666669,74.811649 0 0 0 235.54175,64.124272 H 0 v 21.374757 h 235.52 a 74.666669,74.811649 0 0 0 73.81333,64.124281 74.666669,74.811649 0 0 0 73.79166,-64.124281 H 512 V 64.124272 H 383.168 A 74.666669,74.811649 0 0 0 309.33333,0 M 74.66666,277.87185 A 74.666669,74.811649 0 0 0 0,352.6835 74.666669,74.811649 0 0 0 74.66666,427.49515 74.666669,74.811649 0 0 0 148.5,363.37088 H 512 V 341.99612 H 148.45866 a 74.666669,74.811649 0 0 0 -73.792,-64.12427 m 0,21.37474 A 53.333334,53.436893 0 0 1 127.99999,352.6835 53.333334,53.436893 0 0 1 74.66666,406.12038 53.333334,53.436893 0 0 1 21.333337,352.6835 53.333334,53.436893 0 0 1 74.66666,299.24659"
   class="ColorScheme-Text"
   id="path4" /></svg>