<?xml version="1.0" encoding="UTF-8" standalone="no"?>
<svg
   xmlns:dc="http://purl.org/dc/elements/1.1/"
   xmlns:cc="http://creativecommons.org/ns#"
   xmlns:rdf="http://www.w3.org/1999/02/22-rdf-syntax-ns#"
   xmlns:svg="http://www.w3.org/2000/svg"
   xmlns="http://www.w3.org/2000/svg"
   xmlns:sodipodi="http://sodipodi.sourceforge.net/DTD/sodipodi-0.dtd"
   xmlns:inkscape="http://www.inkscape.org/namespaces/inkscape"
   height="384pt"
   viewBox="0 -1 384.50072 384"
   width="384pt"
   version="1.1"
   id="svg6"
   sodipodi:docname="CTS.svg"
   inkscape:version="0.92.4 5da689c313, 2019-01-14">
  <metadata
     id="metadata12">
    <rdf:RDF>
      <cc:Work
         rdf:about="">
        <dc:format>image/svg+xml</dc:format>
        <dc:type
           rdf:resource="http://purl.org/dc/dcmitype/StillImage" />
        <dc:title />
      </cc:Work>
    </rdf:RDF>
  </metadata>
  <defs
     id="defs10" />
  <sodipodi:namedview
     pagecolor="#ffffff"
     bordercolor="#666666"
     borderopacity="1"
     objecttolerance="10"
     gridtolerance="10"
     guidetolerance="10"
     inkscape:pageopacity="0"
     inkscape:pageshadow="2"
     inkscape:window-width="1366"
     inkscape:window-height="715"
     id="namedview8"
     showgrid="false"
     inkscape:zoom="0.88279302"
     inkscape:cx="241.51536"
     inkscape:cy="248.9085"
     inkscape:window-x="0"
     inkscape:window-y="0"
     inkscape:window-maximized="1"
     inkscape:current-layer="svg6"
     inkscape:snap-page="true" />
  <g
     aria-label="RTS"
     style="font-style:normal;font-weight:normal;font-size:165.40678406px;line-height:1.25;font-family:sans-serif;letter-spacing:0px;word-spacing:0px;fill:#000000;fill-opacity:1;stroke:none;stroke-width:0.86149353"
     id="text3868"
     transform="matrix(1.1105212,0,0,1.1721032,-21.133255,-59.684879)">
    <g
       aria-label="CTS"
       transform="scale(1.0273526,0.97337566)"
       style="font-style:normal;font-weight:normal;font-size:33.66569901px;line-height:1.25;font-family:sans-serif;letter-spacing:0px;word-spacing:0px;fill:#000000;fill-opacity:1;stroke:none;stroke-width:0.72506958"
       id="text13">
      <path
         id="path25"
         style="font-size:161.59535217px;stroke-width:0.72506958"
         d="m 327.89243,167.71081 v 15.54409 q -9.07396,-4.33972 -17.12217,-6.47013 -8.0482,-2.1304 -15.54408,-2.1304 -13.01916,0 -20.12052,5.04985 -7.02245,5.04985 -7.02245,14.36052 0,7.8115 4.65533,11.8356 4.73424,3.9452 17.8323,6.39122 l 9.62629,1.9726 q 17.8323,3.39287 26.27502,11.99341 8.52163,8.52163 8.52163,22.88215 0,17.12217 -11.51998,25.95941 -11.44107,8.83725 -33.61309,8.83725 -8.36382,0 -17.8323,-1.8937 -9.38958,-1.89369 -19.48928,-5.60218 v -16.41203 q 9.70518,5.44438 19.01585,8.20602 9.31067,2.76164 18.30573,2.76164 13.65039,0 21.06736,-5.36548 7.41697,-5.36547 7.41697,-15.30737 0,-8.67944 -5.36547,-13.57148 -5.28656,-4.89205 -17.43778,-7.33807 l -9.70519,-1.8937 q -17.83229,-3.55068 -25.8016,-11.12546 -7.9693,-7.57478 -7.9693,-21.06736 0,-15.62299 10.96765,-24.61804 11.04656,-8.99506 30.37804,-8.99506 8.28492,0 16.88545,1.49918 8.60053,1.49917 17.59559,4.49752 z M 142.23137,163.84452 H 241.8871 V 177.2582 H 200.06799 V 281.64816 H 184.05048 V 177.2582 h -41.81911 z m -8.28492,9.07396 v 16.80655 q -8.04821,-7.49588 -17.20107,-11.20437 -9.07396,-3.70849 -19.331474,-3.70849 -20.199419,0 -30.93036,12.38793 -10.730941,12.30902 -10.730941,35.6646 0,23.27667 10.730941,35.6646 10.730941,12.30902 30.93036,12.30902 10.257514,0 19.331474,-3.70849 9.15286,-3.70849 17.20107,-11.20436 v 16.64874 q -8.36382,5.68108 -17.7534,8.52162 -9.31067,2.84055 -19.725991,2.84055 -26.74845,0 -42.134726,-16.33313 -15.386276,-16.41202 -15.386276,-44.73855 0,-28.40544 15.386276,-44.73856 15.386276,-16.41203 42.134726,-16.41203 10.573131,0 19.883801,2.84055 9.38958,2.76164 17.59559,8.36382 z"
         inkscape:connector-curvature="0" />
    </g>
  </g>
</svg>
