<?xml version="1.0" encoding="UTF-8" standalone="no"?>
<svg
   xmlns:dc="http://purl.org/dc/elements/1.1/"
   xmlns:cc="http://creativecommons.org/ns#"
   xmlns:rdf="http://www.w3.org/1999/02/22-rdf-syntax-ns#"
   xmlns:svg="http://www.w3.org/2000/svg"
   xmlns="http://www.w3.org/2000/svg"
   xmlns:sodipodi="http://sodipodi.sourceforge.net/DTD/sodipodi-0.dtd"
   xmlns:inkscape="http://www.inkscape.org/namespaces/inkscape"
   height="384pt"
   viewBox="0 -1 384.50072 384"
   width="384pt"
   version="1.1"
   id="svg6"
   sodipodi:docname="DCD.svg"
   inkscape:version="0.92.4 5da689c313, 2019-01-14">
  <metadata
     id="metadata12">
    <rdf:RDF>
      <cc:Work
         rdf:about="">
        <dc:format>image/svg+xml</dc:format>
        <dc:type
           rdf:resource="http://purl.org/dc/dcmitype/StillImage" />
        <dc:title />
      </cc:Work>
    </rdf:RDF>
  </metadata>
  <defs
     id="defs10" />
  <sodipodi:namedview
     pagecolor="#ffffff"
     bordercolor="#666666"
     borderopacity="1"
     objecttolerance="10"
     gridtolerance="10"
     guidetolerance="10"
     inkscape:pageopacity="0"
     inkscape:pageshadow="2"
     inkscape:window-width="1366"
     inkscape:window-height="715"
     id="namedview8"
     showgrid="false"
     inkscape:zoom="0.88279302"
     inkscape:cx="-14.900132"
     inkscape:cy="248.9445"
     inkscape:window-x="0"
     inkscape:window-y="0"
     inkscape:window-maximized="1"
     inkscape:current-layer="svg6"
     inkscape:snap-page="true" />
  <g
     aria-label="RTS"
     style="font-style:normal;font-weight:normal;font-size:165.40678406px;line-height:1.25;font-family:sans-serif;letter-spacing:0px;word-spacing:0px;fill:#000000;fill-opacity:1;stroke:none;stroke-width:0.86149353"
     id="text3868"
     transform="matrix(1.1105212,0,0,1.1721032,-21.133255,-59.684879)">
    <g
       aria-label="DCD"
       transform="scale(1.0273526,0.97337567)"
       style="font-style:normal;font-weight:normal;font-size:28.94194603px;line-height:1.25;font-family:sans-serif;letter-spacing:0px;word-spacing:0px;fill:#000000;fill-opacity:1;stroke:none;stroke-width:0.6233325"
       id="text13">
      <path
         id="path13"
         style="font-size:138.92134094px;stroke-width:0.6233325"
         d="m 262.45476,174.80582 v 78.75375 h 16.55117 q 20.9603,0 30.66038,-9.49658 9.7679,-9.49657 9.7679,-29.98205 0,-20.3498 -9.7679,-29.77854 -9.70008,-9.49658 -30.66038,-9.49658 z m -13.70221,-11.26023 h 28.15057 q 29.43938,0 43.20942,12.27772 13.77003,12.20988 13.77003,38.25763 0,26.18342 -13.83786,38.46114 -13.83787,12.27771 -43.14159,12.27771 h -28.15057 z m -21.16379,7.80076 v 14.44836 q -6.91894,-6.4441 -14.78753,-9.63224 -7.80076,-3.18813 -16.61901,-3.18813 -17.36517,0 -26.59041,10.64973 -9.22525,10.5819 -9.22525,30.66037 0,20.01064 9.22525,30.66038 9.22524,10.5819 26.59041,10.5819 8.81825,0 16.61901,-3.18814 7.86859,-3.18814 14.78753,-9.63224 v 14.31269 q -7.19027,4.88396 -15.26236,7.32593 -8.00426,2.44198 -16.95817,2.44198 -22.99528,0 -36.22265,-14.04136 -13.22738,-14.1092 -13.22738,-38.46114 0,-24.41976 13.22738,-38.46113 13.22737,-14.1092 36.22265,-14.1092 9.08958,0 17.09384,2.44198 8.07209,2.37414 15.12669,7.19026 z m -169.10689,3.45947 v 78.75375 h 16.551176 q 20.9603,0 30.660374,-9.49658 9.76791,-9.49657 9.76791,-29.98205 0,-20.3498 -9.76791,-29.77854 -9.700074,-9.49658 -30.660374,-9.49658 z M 44.779668,163.54559 h 28.150565 q 29.439387,0 43.209417,12.27772 13.77004,12.20988 13.77004,38.25763 0,26.18342 -13.83787,38.46114 -13.83787,12.27771 -43.141587,12.27771 H 44.779668 Z"
         inkscape:connector-curvature="0" />
    </g>
  </g>
</svg>
