<?xml version="1.0" encoding="UTF-8" standalone="no"?>
<svg
   xmlns:dc="http://purl.org/dc/elements/1.1/"
   xmlns:cc="http://creativecommons.org/ns#"
   xmlns:rdf="http://www.w3.org/1999/02/22-rdf-syntax-ns#"
   xmlns:svg="http://www.w3.org/2000/svg"
   xmlns="http://www.w3.org/2000/svg"
   xmlns:sodipodi="http://sodipodi.sourceforge.net/DTD/sodipodi-0.dtd"
   xmlns:inkscape="http://www.inkscape.org/namespaces/inkscape"
   height="384pt"
   viewBox="-66 0 294.52426 384.19301"
   width="294.52426pt"
   version="1.1"
   id="svg26"
   sodipodi:docname="document-copy.svg"
   inkscape:version="0.92.4 5da689c313, 2019-01-14">
  <metadata
     id="metadata32">
    <rdf:RDF>
      <cc:Work
         rdf:about="">
        <dc:format>image/svg+xml</dc:format>
        <dc:type
           rdf:resource="http://purl.org/dc/dcmitype/StillImage" />
      </cc:Work>
    </rdf:RDF>
  </metadata>
  <defs
     id="defs30" />
  <sodipodi:namedview
     pagecolor="#ffffff"
     bordercolor="#666666"
     borderopacity="1"
     objecttolerance="10"
     gridtolerance="10"
     guidetolerance="10"
     inkscape:pageopacity="0"
     inkscape:pageshadow="2"
     inkscape:window-width="1366"
     inkscape:window-height="715"
     id="namedview28"
     showgrid="false"
     inkscape:zoom="0.35079126"
     inkscape:cx="-841.73723"
     inkscape:cy="373.84626"
     inkscape:window-x="0"
     inkscape:window-y="0"
     inkscape:window-maximized="1"
     inkscape:current-layer="svg26" />
  <path
     d="M -66.096505,44.822161 V 377.78908 c 0,3.53694 2.868202,6.40393 6.40661,6.40393 H 183.73485 c 3.53575,0 6.40395,-2.86699 6.40395,-6.40393 V 108.85609 c 0,-0.14242 -0.0685,-0.26375 -0.0818,-0.40354 -0.0317,-0.56178 -0.14248,-1.11567 -0.32719,-1.64581 -0.0712,-0.20573 -0.12141,-0.40356 -0.21108,-0.60401 -0.31137,-0.69629 -0.74409,-1.33194 -1.28239,-1.87527 L 124.17821,40.296168 c -0.54357,-0.540694 -1.18212,-0.973259 -1.88397,-1.281839 -0.19263,-0.08189 -0.38788,-0.150331 -0.58843,-0.211001 -0.53565,-0.184631 -1.09241,-0.295407 -1.6597,-0.332328 -0.10824,0.01839 -0.23484,-0.05008 -0.36942,-0.05008 H -59.689895 c -3.538408,0 -6.40661,2.864354 -6.40661,6.40128 z M 168.26979,102.45217 H 126.08064 V 60.280722 Z M -53.285933,51.226089 H 113.27006 v 57.630001 c 0,3.5343 2.86821,6.40128 6.40398,6.40128 h 57.65418 V 371.3878 H -53.285933 Z m 0,0"
     id="path2"
     inkscape:connector-curvature="0"
     style="stroke-width:0.67534906" />
  <path
     d="m 202.95202,332.96694 v 12.80519 h 19.2172 c 3.53839,0 6.40659,-2.86435 6.40659,-6.40128 V 6.40392 C 228.57581,2.867 225.70761,0 222.16922,0 H -21.255529 c -3.538411,0 -6.40661,2.867 -6.40661,6.40392 v 19.209129 h 12.813218 V 12.805208 H 215.7626 V 332.96694 Z m 0,0"
     id="path4"
     inkscape:connector-curvature="0"
     style="stroke-width:0.67534906" />
  <path
     d="M -14.848921,128.06522 H 138.89121 v 12.80521 H -14.848921 Z m 0,0"
     id="path6"
     inkscape:connector-curvature="0"
     style="stroke-width:0.67534906" />
  <path
     d="m -14.848921,89.64433 h 51.247587 v 12.80784 h -51.247587 z m 0,0"
     id="path8"
     inkscape:connector-curvature="0"
     style="stroke-width:0.67534906" />
  <path
     d="M -14.848921,166.48346 H 87.646256 v 12.80783 H -14.848921 Z m 0,0"
     id="path10"
     inkscape:connector-curvature="0"
     style="stroke-width:0.67534906" />
  <path
     d="m 100.45685,166.48346 h 38.43436 v 12.80783 h -38.43436 z m 0,0"
     id="path12"
     inkscape:connector-curvature="0"
     style="stroke-width:0.67534906" />
  <path
     d="M -14.848921,204.90171 H 138.89121 v 12.80784 H -14.848921 Z m 0,0"
     id="path14"
     inkscape:connector-curvature="0"
     style="stroke-width:0.67534906" />
  <path
     d="M -14.848921,281.74083 H 138.89121 v 12.80785 H -14.848921 Z m 0,0"
     id="path16"
     inkscape:connector-curvature="0"
     style="stroke-width:0.67534906" />
  <path
     d="M 42.802636,243.32258 H 138.89121 V 256.1278 H 42.802636 Z m 0,0"
     id="path18"
     inkscape:connector-curvature="0"
     style="stroke-width:0.67534906" />
  <path
     d="m -14.848921,243.32258 h 44.840987 v 12.80522 h -44.840987 z m 0,0"
     id="path20"
     inkscape:connector-curvature="0"
     style="stroke-width:0.67534906" />
  <path
     d="m -14.848921,320.16173 h 25.623789 v 12.80521 h -25.623789 z m 0,0"
     id="path22"
     inkscape:connector-curvature="0"
     style="stroke-width:0.67534906" />
  <path
     d="M 23.585454,320.16173 H 138.89121 v 12.80521 H 23.585454 Z m 0,0"
     id="path24"
     inkscape:connector-curvature="0"
     style="stroke-width:0.67534906" />
</svg>
