<?xml version="1.0" encoding="UTF-8" standalone="no"?>
<svg
   xmlns:dc="http://purl.org/dc/elements/1.1/"
   xmlns:cc="http://creativecommons.org/ns#"
   xmlns:rdf="http://www.w3.org/1999/02/22-rdf-syntax-ns#"
   xmlns:svg="http://www.w3.org/2000/svg"
   xmlns="http://www.w3.org/2000/svg"
   xmlns:sodipodi="http://sodipodi.sourceforge.net/DTD/sodipodi-0.dtd"
   xmlns:inkscape="http://www.inkscape.org/namespaces/inkscape"
   viewBox="0 0 64 64"
   width="512"
   height="512"
   version="1.1"
   id="svg17"
   sodipodi:docname="document-pdf.svg"
   inkscape:version="0.92.4 5da689c313, 2019-01-14">
  <metadata
     id="metadata23">
    <rdf:RDF>
      <cc:Work
         rdf:about="">
        <dc:format>image/svg+xml</dc:format>
        <dc:type
           rdf:resource="http://purl.org/dc/dcmitype/StillImage" />
        <dc:title></dc:title>
      </cc:Work>
    </rdf:RDF>
  </metadata>
  <defs
     id="defs21" />
  <sodipodi:namedview
     pagecolor="#ffffff"
     bordercolor="#666666"
     borderopacity="1"
     objecttolerance="10"
     gridtolerance="10"
     guidetolerance="10"
     inkscape:pageopacity="0"
     inkscape:pageshadow="2"
     inkscape:window-width="1366"
     inkscape:window-height="715"
     id="namedview19"
     showgrid="false"
     inkscape:zoom="0.70710678"
     inkscape:cx="286.91893"
     inkscape:cy="333.17542"
     inkscape:window-x="0"
     inkscape:window-y="0"
     inkscape:window-maximized="1"
     inkscape:current-layer="svg17" />
  <g
     transform="matrix(0.1585822,0,0,0.1585822,0.69587372,0.69587372)"
     id="g14">
    <g
       id="g12">
      <g
         id="g10">
        <path
           d="m 218.4,167.6 c -2.8,-2.4 -6,-4 -9.6,-5.2 -3.6,-0.8 -7.6,-1.2 -12.4,-1.2 H 178 c -3.2,0 -5.2,0.8 -6.8,2 -1.2,1.2 -2,3.6 -2,6.8 v 51.6 c 0,2.4 0,4 0.8,5.6 0.4,1.6 1.2,2.4 2.4,3.2 1.2,0.8 3.2,1.2 6,1.2 h 18.4 c 3.2,0 6,-0.4 8.8,-0.8 2.4,-0.4 4.8,-1.2 7.2,-2 2.4,-1.2 4.4,-2.4 6,-4 2.4,-2.4 4.4,-4.8 6,-7.6 1.6,-2.8 2.8,-6 3.6,-9.6 0.8,-3.6 1.2,-7.2 1.2,-11.6 0,-12.4 -3.6,-22 -11.2,-28.4 z M 208,217.2 c -1.2,0.8 -2.4,1.6 -3.6,2 -1.6,0.4 -2.8,0.8 -4,0.8 -1.2,0 -3.2,0 -5.6,0 H 184 v -48 h 9.6 c 4.4,0 8,0.4 11.2,1.6 3.2,0.8 5.6,3.2 7.6,6.8 2,3.6 3.2,8.8 3.2,15.6 -0.4,10.4 -2.8,17.2 -7.6,21.2 z"
           id="path2"
           inkscape:connector-curvature="0" />
        <path
           d="m 345.6,78.8 -0.4,-0.4 V 78 l -76,-76 -0.4,-0.4 c 0,0 -0.4,0 -0.4,-0.4 0,0 -0.4,0 -0.4,-0.4 C 266.8,0 265.6,0 264,0 H 75.6 C 68.4,0 61.6,2.8 56.8,7.6 L 56.4,8 c -4.8,4.8 -8,12 -8,19.2 v 340.4 c 0,7.6 3.2,14.4 8,19.2 4.8,4.8 12,8 19.2,8 h 243.6 c 7.6,0 14.4,-3.2 19.2,-8 4.8,-4.8 8,-12 8,-19.2 V 82.8 c 0,-1.6 -0.4,-2.8 -0.8,-4 z m -74,-50 45.2,45.2 h -33.2 c -3.2,0 -6.4,-1.2 -8.4,-3.6 -2,-2 -3.6,-5.2 -3.6,-8.4 z m 57.6,338.8 c 0,2.8 -1.2,5.2 -3.2,7.2 -2,2 -4.4,3.2 -7.2,3.2 H 75.6 c -2.8,0 -5.2,-1.2 -7.2,-2.8 -2,-2 -2.8,-4.4 -2.8,-7.2 V 26.8 c 0,-2.8 1.2,-5.2 3.2,-7.2 l 0.4,-0.4 c 2,-1.6 4.4,-2.8 6.8,-2.8 h 179.2 v 45.2 c 0,8 3.2,15.2 8.8,20.8 5.2,5.2 12.8,8.4 20.8,8.4 h 44.4 z"
           id="path4"
           inkscape:connector-curvature="0" />
        <path
           d="m 150.8,166.8 c -2,-2 -4.4,-3.2 -7.6,-4 -2.8,-0.8 -7.2,-1.2 -12.4,-1.2 h -18.4 c -3.2,0 -5.6,0.8 -6.8,2 -1.6,1.2 -2,3.6 -2,6.8 v 54.4 c 0,2.8 0.8,4.8 2,6.4 1.2,1.6 3.2,2 5.2,2 2,0 3.6,-0.8 5.2,-2.4 1.2,-1.6 2,-3.6 2,-6.4 v -20 h 13.2 c 8.8,0 15.2,-2 19.6,-5.6 4.4,-3.6 6.8,-9.2 6.8,-16.4 0,-3.2 -0.4,-6.4 -1.6,-9.2 -1.6,-2.4 -3.2,-4.8 -5.2,-6.4 z m -9.6,22.4 c -1.2,1.6 -2.8,2.8 -5.2,3.6 -2.4,0.8 -5.2,1.2 -8.4,1.2 H 118 v -21.6 h 9.6 c 6.4,0 10.4,1.2 12.8,3.2 2,2 2.8,4.4 2.8,7.6 -0.4,2.4 -0.8,4.4 -2,6 z"
           id="path6"
           inkscape:connector-curvature="0" />
        <path
           d="m 250.8,160.8 c -2.4,0.4 -4,0.8 -5.2,1.6 -1.2,0.4 -2.4,1.6 -2.8,2.8 -0.8,1.2 -0.8,2.8 -0.8,5.2 v 54 c 0,2.8 0.8,5.2 2,6.4 1.2,1.6 3.2,2 5.2,2 2,0 3.6,-0.8 5.2,-2 1.2,-1.6 2,-3.6 2,-6.4 V 201.2 H 280 c 2,0 3.6,-0.4 4.8,-1.6 1.2,-0.8 1.6,-2.4 1.6,-4 0,-1.6 -0.4,-2.8 -1.6,-4 -1.2,-0.8 -2.8,-1.6 -4.8,-1.6 h -23.6 v -18 h 28 c 2.4,0 4,-0.4 5.2,-1.6 1.2,-1.2 1.6,-2.4 1.6,-4 0,-1.6 -0.4,-2.8 -1.6,-4 -1.2,-1.2 -2.8,-1.6 -5.2,-1.6 z"
           id="path8"
           inkscape:connector-curvature="0" />
      </g>
    </g>
  </g>
  <g
     transform="matrix(0.125,0,0,0.125,11.192373,11.821732)"
     id="g16" />
  <g
     transform="matrix(0.125,0,0,0.125,11.192373,11.821732)"
     id="g18" />
  <g
     transform="matrix(0.125,0,0,0.125,11.192373,11.821732)"
     id="g20" />
  <g
     transform="matrix(0.125,0,0,0.125,11.192373,11.821732)"
     id="g22" />
  <g
     transform="matrix(0.125,0,0,0.125,11.192373,11.821732)"
     id="g24" />
  <g
     transform="matrix(0.125,0,0,0.125,11.192373,11.821732)"
     id="g26" />
  <g
     transform="matrix(0.125,0,0,0.125,11.192373,11.821732)"
     id="g28" />
  <g
     transform="matrix(0.125,0,0,0.125,11.192373,11.821732)"
     id="g30" />
  <g
     transform="matrix(0.125,0,0,0.125,11.192373,11.821732)"
     id="g32" />
  <g
     transform="matrix(0.125,0,0,0.125,11.192373,11.821732)"
     id="g34" />
  <g
     transform="matrix(0.125,0,0,0.125,11.192373,11.821732)"
     id="g36" />
  <g
     transform="matrix(0.125,0,0,0.125,11.192373,11.821732)"
     id="g38" />
  <g
     transform="matrix(0.125,0,0,0.125,11.192373,11.821732)"
     id="g40" />
  <g
     transform="matrix(0.125,0,0,0.125,11.192373,11.821732)"
     id="g42" />
  <g
     transform="matrix(0.125,0,0,0.125,11.192373,11.821732)"
     id="g44" />
</svg>
