<?xml version="1.0" encoding="UTF-8" standalone="no"?>
<!-- Generator: Adobe Illustrator 19.0.0, SVG Export Plug-In . SVG Version: 6.00 Build 0)  -->

<svg
   xmlns:dc="http://purl.org/dc/elements/1.1/"
   xmlns:cc="http://creativecommons.org/ns#"
   xmlns:rdf="http://www.w3.org/1999/02/22-rdf-syntax-ns#"
   xmlns:svg="http://www.w3.org/2000/svg"
   xmlns="http://www.w3.org/2000/svg"
   xmlns:sodipodi="http://sodipodi.sourceforge.net/DTD/sodipodi-0.dtd"
   xmlns:inkscape="http://www.inkscape.org/namespaces/inkscape"
   version="1.1"
   id="Capa_1"
   x="0px"
   y="0px"
   viewBox="0 0 512 512"
   xml:space="preserve"
   sodipodi:docname="document-editor.svg"
   width="512"
   height="512"
   inkscape:version="0.92.4 5da689c313, 2019-01-14"><metadata
   id="metadata57"><rdf:RDF><cc:Work
       rdf:about=""><dc:format>image/svg+xml</dc:format><dc:type
         rdf:resource="http://purl.org/dc/dcmitype/StillImage" /></cc:Work></rdf:RDF></metadata><defs
   id="defs55" /><sodipodi:namedview
   pagecolor="#ffffff"
   bordercolor="#666666"
   borderopacity="1"
   objecttolerance="10"
   gridtolerance="10"
   guidetolerance="10"
   inkscape:pageopacity="0"
   inkscape:pageshadow="2"
   inkscape:window-width="1366"
   inkscape:window-height="715"
   id="namedview53"
   showgrid="false"
   inkscape:zoom="0.921875"
   inkscape:cx="-56.399102"
   inkscape:cy="210.81969"
   inkscape:window-x="0"
   inkscape:window-y="0"
   inkscape:window-maximized="1"
   inkscape:current-layer="Capa_1" />

















<path
   inkscape:connector-curvature="0"
   style="opacity:0.2;stroke-width:9.07083035"
   d="m 0,451.25424 v 17.35593 c 0,14.42278 12.68622,26.0339 28.444445,26.0339 H 388.74075 c 15.75821,0 28.44444,-11.61112 28.44444,-26.0339 v -17.35593 c 0,14.42278 -12.68623,26.0339 -28.44444,26.0339 H 28.444445 C 12.68622,477.28814 0,465.67702 0,451.25424 Z"
   id="path2" /><path
   inkscape:connector-curvature="0"
   style="fill:#e4e4e4;stroke-width:9.07083035"
   d="M 417.18519,459.9322 V 26.033895 C 417.18519,11.611116 404.49896,0 388.74075,0 H 28.444445 C 12.68622,0 0,11.611116 0,26.033895 V 459.9322 c 0,14.42278 12.68622,26.0339 28.444445,26.0339 H 388.74075 c 15.75821,0 28.44444,-11.61112 28.44444,-26.0339 z"
   id="path4" /><path
   inkscape:connector-curvature="0"
   style="opacity:0.1;fill:#ffffff;stroke-width:9.07083035"
   d="M 28.444445,0 C 12.68622,0 0,11.611116 0,26.033895 V 34.71186 C 0,20.289081 12.68622,8.677965 28.444445,8.677965 H 388.74075 c 15.75821,0 28.44444,11.611116 28.44444,26.033895 V 26.033895 C 417.18519,11.611116 404.49896,0 388.74075,0 Z"
   id="path6" /><path
   inkscape:connector-curvature="0"
   style="opacity:0.2;fill-rule:evenodd;stroke-width:9.07083035"
   d="M 511.60177,363.15554 A 151.70369,138.84747 0 0 1 360.2963,494.64407 151.70369,138.84747 0 0 1 208.99083,365.79363 151.70369,138.84747 0 0 0 208.59262,373.15253 151.70369,138.84747 0 0 0 360.2963,512 151.70369,138.84747 0 0 0 512,373.15253 a 151.70369,138.84747 0 0 0 -0.40771,-9.99996 z"
   id="path8" /><g
   transform="matrix(18.962961,0,0,17.355933,-37.925923,-34.71186)"
   id="g12"><circle
     style="fill:#f34235"
     cx="21"
     cy="23"
     r="8"
     id="circle10" /></g><path
   inkscape:connector-curvature="0"
   style="fill:#ffffff;stroke-width:9.07083035"
   d="m 284.44446,402.97003 v 30.92828 h 33.7901 l 85.34091,-78.10864 -33.79011,-30.92654 z m 149.02233,-74.44132 c 3.57414,-3.27108 3.57414,-8.42544 0,-11.69669 l -21.11905,-19.3293 c -3.57414,-3.27125 -9.20576,-3.27125 -12.77971,0 l -17.65452,16.26251 33.792,30.92827 z"
   id="path14" /></svg>