<?xml version="1.0" encoding="UTF-8" standalone="no"?>
<!-- Generator: Adobe Illustrator 19.0.0, SVG Export Plug-In . SVG Version: 6.00 Build 0)  -->

<svg
   xmlns:dc="http://purl.org/dc/elements/1.1/"
   xmlns:cc="http://creativecommons.org/ns#"
   xmlns:rdf="http://www.w3.org/1999/02/22-rdf-syntax-ns#"
   xmlns:svg="http://www.w3.org/2000/svg"
   xmlns="http://www.w3.org/2000/svg"
   xmlns:sodipodi="http://sodipodi.sourceforge.net/DTD/sodipodi-0.dtd"
   xmlns:inkscape="http://www.inkscape.org/namespaces/inkscape"
   version="1.1"
   id="Capa_1"
   x="0px"
   y="0px"
   viewBox="0 0 470 512"
   xml:space="preserve"
   sodipodi:docname="document-delete.svg"
   width="470"
   height="512"
   inkscape:version="0.92.4 5da689c313, 2019-01-14"><metadata
   id="metadata57"><rdf:RDF><cc:Work
       rdf:about=""><dc:format>image/svg+xml</dc:format><dc:type
         rdf:resource="http://purl.org/dc/dcmitype/StillImage" /></cc:Work></rdf:RDF></metadata><defs
   id="defs55" /><sodipodi:namedview
   pagecolor="#ffffff"
   bordercolor="#666666"
   borderopacity="1"
   objecttolerance="10"
   gridtolerance="10"
   guidetolerance="10"
   inkscape:pageopacity="0"
   inkscape:pageshadow="2"
   inkscape:window-width="1366"
   inkscape:window-height="715"
   id="namedview53"
   showgrid="false"
   inkscape:zoom="0.4609375"
   inkscape:cx="-288.20965"
   inkscape:cy="206.00032"
   inkscape:window-x="0"
   inkscape:window-y="0"
   inkscape:window-maximized="1"
   inkscape:current-layer="Capa_1" />
<g
   id="g14"
   transform="matrix(0.98482531,0,0,1,-17.115279,0)">
	<g
   id="g12">
		<g
   id="g10">
			<polygon
   points="344.885,413.804 353.574,176.526 313.496,175.056 304.807,412.34 "
   id="polygon2" />
			<rect
   x="235.948"
   y="175.791"
   width="40.104"
   height="237.285"
   id="rect4" />
			<polygon
   points="167.109,413.804 207.186,412.334 198.497,175.049 158.419,176.52 "
   id="polygon6" />
			<path
   d="m 17.379,76.867 v 40.104 H 59.168 L 92.32,493.706 C 93.229,504.059 101.899,512 112.292,512 h 286.74 c 10.394,0 19.07,-7.947 19.972,-18.301 l 33.153,-376.728 h 42.464 V 76.867 Z M 380.665,471.896 H 130.654 L 99.426,116.971 H 411.9 Z"
   id="path8"
   inkscape:connector-curvature="0" />
		</g>
	</g>
</g>
<g
   id="g20"
   transform="matrix(0.98482531,0,0,1,-17.115279,0)">
	<g
   id="g18">
		<path
   d="M 321.504,0 H 190.496 c -18.428,0 -33.42,14.992 -33.42,33.42 V 96.919 H 197.18 V 40.104 h 117.64 v 56.815 h 40.104 V 33.42 C 354.924,14.992 339.932,0 321.504,0 Z"
   id="path16"
   inkscape:connector-curvature="0" />
	</g>
</g>
<g
   id="g22"
   transform="matrix(0.98482531,0,0,1,-17.115279,0)">
</g>
<g
   id="g24"
   transform="matrix(0.98482531,0,0,1,-17.115279,0)">
</g>
<g
   id="g26"
   transform="matrix(0.98482531,0,0,1,-17.115279,0)">
</g>
<g
   id="g28"
   transform="matrix(0.98482531,0,0,1,-17.115279,0)">
</g>
<g
   id="g30"
   transform="matrix(0.98482531,0,0,1,-17.115279,0)">
</g>
<g
   id="g32"
   transform="matrix(0.98482531,0,0,1,-17.115279,0)">
</g>
<g
   id="g34"
   transform="matrix(0.98482531,0,0,1,-17.115279,0)">
</g>
<g
   id="g36"
   transform="matrix(0.98482531,0,0,1,-17.115279,0)">
</g>
<g
   id="g38"
   transform="matrix(0.98482531,0,0,1,-17.115279,0)">
</g>
<g
   id="g40"
   transform="matrix(0.98482531,0,0,1,-17.115279,0)">
</g>
<g
   id="g42"
   transform="matrix(0.98482531,0,0,1,-17.115279,0)">
</g>
<g
   id="g44"
   transform="matrix(0.98482531,0,0,1,-17.115279,0)">
</g>
<g
   id="g46"
   transform="matrix(0.98482531,0,0,1,-17.115279,0)">
</g>
<g
   id="g48"
   transform="matrix(0.98482531,0,0,1,-17.115279,0)">
</g>
<g
   id="g50"
   transform="matrix(0.98482531,0,0,1,-17.115279,0)">
</g>
</svg>