<?xml version="1.0" encoding="UTF-8" standalone="no"?>
<svg
   xmlns:dc="http://purl.org/dc/elements/1.1/"
   xmlns:cc="http://creativecommons.org/ns#"
   xmlns:rdf="http://www.w3.org/1999/02/22-rdf-syntax-ns#"
   xmlns:svg="http://www.w3.org/2000/svg"
   xmlns="http://www.w3.org/2000/svg"
   xmlns:sodipodi="http://sodipodi.sourceforge.net/DTD/sodipodi-0.dtd"
   xmlns:inkscape="http://www.inkscape.org/namespaces/inkscape"
   viewBox="0 0 64 64"
   width="512"
   height="512"
   version="1.1"
   id="svg17"
   sodipodi:docname="document-print-preview.svg"
   inkscape:version="0.92.4 5da689c313, 2019-01-14">
  <metadata
     id="metadata23">
    <rdf:RDF>
      <cc:Work
         rdf:about="">
        <dc:format>image/svg+xml</dc:format>
        <dc:type
           rdf:resource="http://purl.org/dc/dcmitype/StillImage" />
        <dc:title></dc:title>
      </cc:Work>
    </rdf:RDF>
  </metadata>
  <defs
     id="defs21" />
  <sodipodi:namedview
     pagecolor="#ffffff"
     bordercolor="#666666"
     borderopacity="1"
     objecttolerance="10"
     gridtolerance="10"
     guidetolerance="10"
     inkscape:pageopacity="0"
     inkscape:pageshadow="2"
     inkscape:window-width="1366"
     inkscape:window-height="715"
     id="namedview19"
     showgrid="false"
     inkscape:zoom="0.70710678"
     inkscape:cx="286.91893"
     inkscape:cy="333.17542"
     inkscape:window-x="0"
     inkscape:window-y="0"
     inkscape:window-maximized="1"
     inkscape:current-layer="svg17" />
  <path
     inkscape:connector-curvature="0"
     style="fill:currentColor;stroke-width:4.40545321"
     class="ColorScheme-Text"
     d="M 14.377696,1.1613363 V 9.9722424 H 49.621325 V 1.1613363 Z M 5.5667893,14.377696 c 0,0 -4.4054529,0 -4.4054529,4.405453 v 17.621814 c 0,4.405456 4.4054529,4.405456 4.4054529,4.405456 H 9.9722428 V 31.999511 H 30.820611 c 3.033067,-3.351317 7.366376,-5.506817 12.192534,-5.506817 8.260225,0 15.132731,6.226208 16.28696,14.188626 1.281812,-0.246705 3.537581,-1.104536 3.537581,-4.276357 V 18.783149 c 0,-4.405453 -4.405456,-4.405453 -4.405456,-4.405453 z M 14.377696,36.404963 V 58.43223 h 22.88767 C 31.014028,56.070909 26.492694,50.044248 26.492694,43.013145 c 0,-2.347226 0.518785,-4.577266 1.419965,-6.608182 z"
     id="path5" />
  <path
     inkscape:connector-curvature="0"
     style="fill:currentColor;stroke-width:4.40545321"
     class="ColorScheme-Text"
     d="M 47.418598,51.824051 57.45422,61.859675 c 0,0 2.202727,2.202725 4.405454,0 2.202726,-2.202727 0,-4.405454 0,-4.405454 L 51.82405,47.418598 Z m -16.52045,-8.810906 c 0,6.60818 5.506815,12.114995 12.114997,12.114995 6.60818,0 12.114995,-5.506815 12.114995,-12.114995 0,-6.608182 -5.506815,-12.114997 -12.114995,-12.114997 -6.608182,0 -12.114997,5.506815 -12.114997,12.114997 z M 43.013145,35.3036 c 4.405453,0 7.709542,3.30409 7.709542,7.709545 0,4.405453 -3.304089,7.709542 -7.709542,7.709542 -4.405455,0 -7.709545,-3.304089 -7.709545,-7.709542 0,-4.405455 3.30409,-7.709545 7.709545,-7.709545 z"
     id="path7" />
</svg>
