<?xml version="1.0" encoding="UTF-8" standalone="no"?>
<svg
   xmlns:dc="http://purl.org/dc/elements/1.1/"
   xmlns:cc="http://creativecommons.org/ns#"
   xmlns:rdf="http://www.w3.org/1999/02/22-rdf-syntax-ns#"
   xmlns:svg="http://www.w3.org/2000/svg"
   xmlns="http://www.w3.org/2000/svg"
   xmlns:sodipodi="http://sodipodi.sourceforge.net/DTD/sodipodi-0.dtd"
   xmlns:inkscape="http://www.inkscape.org/namespaces/inkscape"
   viewBox="0 0 64 64"
   width="512"
   height="512"
   version="1.1"
   id="svg17"
   sodipodi:docname="document-saveas2.svg"
   inkscape:version="0.92.4 5da689c313, 2019-01-14">
  <metadata
     id="metadata23">
    <rdf:RDF>
      <cc:Work
         rdf:about="">
        <dc:format>image/svg+xml</dc:format>
        <dc:type
           rdf:resource="http://purl.org/dc/dcmitype/StillImage" />
      </cc:Work>
    </rdf:RDF>
  </metadata>
  <defs
     id="defs21" />
  <sodipodi:namedview
     pagecolor="#ffffff"
     bordercolor="#666666"
     borderopacity="1"
     objecttolerance="10"
     gridtolerance="10"
     guidetolerance="10"
     inkscape:pageopacity="0"
     inkscape:pageshadow="2"
     inkscape:window-width="1366"
     inkscape:window-height="715"
     id="namedview19"
     showgrid="false"
     inkscape:zoom="0.70710678"
     inkscape:cx="286.93899"
     inkscape:cy="220.02614"
     inkscape:window-x="0"
     inkscape:window-y="0"
     inkscape:window-maximized="1"
     inkscape:current-layer="svg17" />
  <path
     inkscape:connector-curvature="0"
     style="fill:currentColor;fill-opacity:1;stroke:none;stroke-width:2.66666675"
     d="M 0,0 V 64 H 13.333335 50.666665 64 V 16 L 61.333331,13.333334 50.666665,2.6666665 47.999997,0 H 45.33333 16.000002 Z M 2.6666669,2.6666665 H 16.000002 V 23.999999 H 45.33333 V 2.6666665 h 1.562454 L 61.333289,17.104171 V 61.333333 H 50.666623 V 40 H 13.333335 V 61.333333 H 2.6666669 Z m 16.0000021,0 H 34.666671 V 21.333334 H 18.666669 Z M 16.000002,42.666666 H 47.999997 V 61.333333 H 16.000002 Z"
     id="path60"
     class="ColorScheme-Text" />
  <path
     style="fill:#030104;stroke-width:2.89316559"
     d="m 27.63405,54.362486 h 13.035692 l 0.002,0.930828 -13.035692,10e-7 z m 13.035692,-1.198826 -13.029554,-0.002 v -2.352688 l 13.0316,1e-6 z m 0,-3.547375 -13.0316,-10e-7 v -1.170185 l 13.0316,0.0041 z m -13.935834,5.670892 -4.776889,-1.871885 v -3.093215 l 4.778935,-1.878024 z m -5.521552,-4.715515 c 0.0982,0.06956 0.155479,0.180029 0.153432,0.292548 l 0.0041,2.00077 c -0.002,0.112522 -0.05933,0.22299 -0.155475,0.290504 -0.100247,0.06751 -0.220946,0.08183 -0.333462,0.03887 l -2.551084,-0.996293 c -0.139116,-0.05319 -0.229126,-0.188213 -0.229127,-0.331417 -0.002,-0.14525 0.09206,-0.284362 0.227083,-0.33346 l 2.555176,-1.000385 c 0.108426,-0.04296 0.229127,-0.02864 0.32937,0.03887 z m 23.362775,-1.76346 0.002,6.123011 c 0,0.200486 -0.159569,0.360056 -0.360057,0.360057 l -2.442656,-10e-7 c -0.198443,0.002 -0.358013,-0.157524 -0.358011,-0.358011 l 0.0041,-6.125056 c -0.0041,-0.196394 0.157525,-0.358011 0.355966,-0.355965 h 2.442658 c 0.19844,-0.002 0.35801,0.157525 0.355965,0.355965 z"
     id="path2"
     inkscape:connector-curvature="0"
     sodipodi:nodetypes="ccccccccccccccccccccccccccccccccscccccc" />
</svg>
