<?xml version="1.0" encoding="UTF-8" standalone="no"?>
<svg
   xmlns:dc="http://purl.org/dc/elements/1.1/"
   xmlns:cc="http://creativecommons.org/ns#"
   xmlns:rdf="http://www.w3.org/1999/02/22-rdf-syntax-ns#"
   xmlns:svg="http://www.w3.org/2000/svg"
   xmlns="http://www.w3.org/2000/svg"
   xmlns:sodipodi="http://sodipodi.sourceforge.net/DTD/sodipodi-0.dtd"
   xmlns:inkscape="http://www.inkscape.org/namespaces/inkscape"
   height="384pt"
   viewBox="0 -1 384.50072 384"
   width="384pt"
   version="1.1"
   id="svg6"
   sodipodi:docname="DTR.svg"
   inkscape:version="0.92.4 5da689c313, 2019-01-14"
   style="enable-background:new">
  <metadata
     id="metadata12">
    <rdf:RDF>
      <cc:Work
         rdf:about="">
        <dc:format>image/svg+xml</dc:format>
        <dc:type
           rdf:resource="http://purl.org/dc/dcmitype/StillImage" />
      </cc:Work>
    </rdf:RDF>
  </metadata>
  <defs
     id="defs10">
    <filter
       inkscape:collect="always"
       style="color-interpolation-filters:sRGB"
       id="filter9">
      <feBlend
         inkscape:collect="always"
         mode="color"
         in2="BackgroundImage"
         id="feBlend11" />
    </filter>
  </defs>
  <sodipodi:namedview
     pagecolor="#ffffff"
     bordercolor="#666666"
     borderopacity="1"
     objecttolerance="10"
     gridtolerance="10"
     guidetolerance="10"
     inkscape:pageopacity="0"
     inkscape:pageshadow="2"
     inkscape:window-width="1366"
     inkscape:window-height="715"
     id="namedview8"
     showgrid="false"
     inkscape:zoom="0.62422893"
     inkscape:cx="-179.11294"
     inkscape:cy="340.42517"
     inkscape:window-x="0"
     inkscape:window-y="0"
     inkscape:window-maximized="1"
     inkscape:current-layer="svg6"
     inkscape:snap-text-baseline="false" />
  <path
     d="m 374.39797,224.59258 c -5.58021,0 -10.10277,4.77336 -10.10277,10.663 v 94.67568 c -0.0198,17.66057 -13.57558,31.9723 -30.30826,31.98896 H 50.513791 C 33.781098,361.90356 20.225249,347.59183 20.205517,329.93126 V 52.064586 C 20.225257,34.408179 33.781098,20.096445 50.513791,20.075618 h 89.701449 c 5.58019,0 10.10275,-4.773353 10.10275,-10.662989 0,-5.88547 -4.52256,-10.662989 -10.10275,-10.662989 H 50.513791 C 22.628601,-1.21704 0.031571,22.633071 0,52.064586 V 329.93543 c 0.03156,29.43151 22.628601,53.28161 50.513791,53.31493 H 333.98694 c 27.88518,-0.0333 50.48221,-23.88342 50.51378,-53.31493 v -94.67985 c 0,-5.88964 -4.52256,-10.663 -10.10275,-10.663 z m 0,0"
     id="path2"
     inkscape:connector-curvature="0"
     style="stroke-width:1.03790951" />
  <g
     aria-label="DTR"
     style="font-style:normal;font-weight:normal;font-size:151.9100647px;line-height:1.25;font-family:sans-serif;letter-spacing:0px;word-spacing:0px;fill:#000000;fill-opacity:1;stroke:none;stroke-width:0.79119813;filter:url(#filter9)"
     id="text3868"
     transform="matrix(1.0102758,0,0,1.0662989,0,-43.019287)">
    <path
       d="m 66.020061,149.88846 v 86.11698 h 18.09866 q 22.920029,0 33.527029,-10.38447 10.68117,-10.38448 10.68117,-32.78528 0,-22.25245 -10.68117,-32.56275 -10.607,-10.38448 -33.527029,-10.38448 z M 51.036744,137.57544 h 30.782557 q 32.191879,0 47.249369,13.42564 15.05749,13.35147 15.05749,41.83461 0,28.63149 -15.13166,42.05713 -15.13167,13.42565 -47.175199,13.42565 H 51.036744 Z"
       style="font-size:151.9100647px;stroke-width:0.79119813"
       id="path13"
       inkscape:connector-curvature="0" />
    <path
       d="m 152.65627,137.57544 h 93.68282 v 12.60972 h -39.31267 v 98.13331 h -15.05749 v -98.13331 h -39.31266 z"
       style="font-size:151.9100647px;stroke-width:0.79119813"
       id="path15"
       inkscape:connector-curvature="0" />
    <path
       d="m 313.31896,196.39608 q 4.82137,1.63185 9.34603,6.97244 4.59884,5.34058 9.19768,14.68661 l 15.20584,30.26334 H 330.97257 L 316.80518,219.9095 q -5.48894,-11.12622 -10.68118,-14.76079 -5.11806,-3.63457 -14.01904,-3.63457 h -16.31847 v 46.80433 H 260.80318 V 137.57544 h 33.82372 q 18.98876,0 28.33479,7.9367 9.34603,7.93671 9.34603,23.95848 0,10.45865 -4.89554,17.35691 -4.82136,6.89826 -14.09322,9.56855 z m -37.53247,-46.50762 v 39.31266 h 18.84041 q 10.82953,0 16.31847,-4.96971 5.56311,-5.04389 5.56311,-14.76079 0,-9.71691 -5.56311,-14.61245 -5.48894,-4.96971 -16.31847,-4.96971 z"
       style="font-size:151.9100647px;stroke-width:0.79119813"
       id="path17"
       inkscape:connector-curvature="0" />
  </g>
</svg>
