<?xml version="1.0" encoding="UTF-8" standalone="no"?>
<svg
   xmlns:dc="http://purl.org/dc/elements/1.1/"
   xmlns:cc="http://creativecommons.org/ns#"
   xmlns:rdf="http://www.w3.org/1999/02/22-rdf-syntax-ns#"
   xmlns:svg="http://www.w3.org/2000/svg"
   xmlns="http://www.w3.org/2000/svg"
   xmlns:sodipodi="http://sodipodi.sourceforge.net/DTD/sodipodi-0.dtd"
   xmlns:inkscape="http://www.inkscape.org/namespaces/inkscape"
   version="1.1"
   id="Capa_1"
   x="0px"
   y="0px"
   viewBox="0 0 512 512"
   style="enable-background:new 0 0 512 512;"
   xml:space="preserve"
   sodipodi:docname="komport_uninstall.svg"
   inkscape:version="1.0.2 (e86c870879, 2021-01-15)"><metadata
   id="metadata99"><rdf:RDF><cc:Work
       rdf:about=""><dc:format>image/svg+xml</dc:format><dc:type
         rdf:resource="http://purl.org/dc/dcmitype/StillImage" /><dc:title></dc:title></cc:Work></rdf:RDF></metadata><defs
   id="defs97" /><sodipodi:namedview
   pagecolor="#ffffff"
   bordercolor="#666666"
   borderopacity="1"
   objecttolerance="10"
   gridtolerance="10"
   guidetolerance="10"
   inkscape:pageopacity="0"
   inkscape:pageshadow="2"
   inkscape:window-width="1366"
   inkscape:window-height="715"
   id="namedview95"
   showgrid="false"
   inkscape:zoom="0.76096843"
   inkscape:cx="183.83212"
   inkscape:cy="277.36169"
   inkscape:window-x="0"
   inkscape:window-y="0"
   inkscape:window-maximized="1"
   inkscape:current-layer="g62" />
<g
   id="g62">
	<circle
   style="fill:#a4c2f7"
   cx="269.96399"
   cy="232.72701"
   r="65.164001"
   id="circle2" />
	<ellipse
   style="fill:#c8b7b7"
   cx="256"
   cy="232.72701"
   rx="51.200001"
   ry="65.164001"
   id="ellipse4" />
	<path
   style="fill:#ffffff"
   d="m 269.964,297.891 c 2.615,-0.014 5.226,-0.186 7.82,-0.514 -25.374,-3.868 -45.056,-31.314 -45.056,-64.65 0,-33.336 19.682,-60.782 45.056,-64.65 -24.038,-2.914 -47.71,7.745 -61.46,27.677 -13.751,19.931 -15.312,45.845 -4.053,67.283 11.259,21.438 33.478,34.861 57.693,34.854 z"
   id="path6" />
	<g
   id="g12">
		<circle
   style="fill:#a4c2f7"
   cx="456.14499"
   cy="55.855"
   r="46.544998"
   id="circle8" />
		<circle
   style="fill:#a4c2f7"
   cx="269.96399"
   cy="456.14499"
   r="46.544998"
   id="circle10" />
	</g>
	<g
   id="g18">
		<ellipse
   style="fill:#c8b7b7"
   cx="442.18201"
   cy="55.855"
   rx="32.582001"
   ry="46.544998"
   id="ellipse14" />
		<ellipse
   style="fill:#c8b7b7"
   cx="256"
   cy="456.14499"
   rx="32.582001"
   ry="46.544998"
   id="ellipse16" />
	</g>
	<circle
   style="fill:#a4c2f7"
   cx="55.855"
   cy="437.52701"
   r="46.544998"
   id="circle20" />
	<g
   id="g26">
		<circle
   style="fill:#e3e7f2"
   cx="121.018"
   cy="83.781998"
   r="27.927"
   id="circle22" />
		<ellipse
   style="fill:#c8b7b7"
   cx="41.890999"
   cy="437.52701"
   rx="32.582001"
   ry="46.544998"
   id="ellipse24" />
	</g>
	<g
   id="g34">
		<path
   style="fill:#ffffff"
   d="m 55.855,484.073 c 2.757,-0.032 5.506,-0.309 8.214,-0.827 -15.241,-3.893 -26.832,-22.825 -26.832,-45.718 0,-22.893 11.59,-41.825 26.832,-45.718 -17.331,-3.127 -34.942,3.805 -45.492,17.906 -10.55,14.102 -12.228,32.953 -4.335,48.697 7.893,15.744 24.001,25.676 41.613,25.66 z"
   id="path28" />
		<path
   style="fill:#ffffff"
   d="m 271.059,502.691 c 2.757,-0.032 5.506,-0.309 8.214,-0.827 -15.241,-3.893 -26.832,-22.825 -26.832,-45.718 0,-22.893 11.59,-41.825 26.832,-45.718 -17.331,-3.127 -34.942,3.805 -45.492,17.906 -10.55,14.102 -12.228,32.953 -4.335,48.697 7.893,15.744 24.002,25.677 41.613,25.66 z"
   id="path30" />
		<path
   style="fill:#ffffff"
   d="m 457.241,102.4 c 2.757,-0.032 5.506,-0.309 8.214,-0.827 -15.242,-3.893 -26.832,-22.825 -26.832,-45.718 0,-22.893 11.59,-41.825 26.832,-45.718 -17.331,-3.127 -34.942,3.805 -45.492,17.906 -10.55,14.102 -12.228,32.953 -4.335,48.697 7.892,15.743 24.002,25.677 41.613,25.66 z"
   id="path32" />
	</g>
	<circle
   style="fill:#e3e7f2"
   cx="418.909"
   cy="381.673"
   r="27.927"
   id="circle36" />
	<g
   id="g60">
		<path
   style="fill:#ff0000"
   d="m 269.964,307.2 c -41.13,0 -74.473,-33.343 -74.473,-74.473 0,-41.13 33.343,-74.473 74.473,-74.473 41.13,0 74.473,33.343 74.473,74.473 -0.048,41.111 -33.363,74.426 -74.473,74.473 z m 0,-130.327 c -30.848,0 -55.855,25.007 -55.855,55.855 0,30.848 25.007,55.855 55.855,55.855 30.848,0 55.855,-25.007 55.855,-55.855 -0.035,-30.834 -25.022,-55.822 -55.855,-55.855 z"
   id="path38" />
		<path
   style="fill:#ff0000"
   d="M 456.145,111.709 C 425.297,111.709 400.29,86.702 400.29,55.854 400.29,25.006 425.298,0 456.145,0 486.992,0 512,25.007 512,55.855 c -0.034,30.833 -25.021,55.82 -55.855,55.854 z m 0,-93.091 c -20.565,0 -37.236,16.671 -37.236,37.236 0,20.565 16.671,37.236 37.236,37.236 20.565,0 37.236,-16.671 37.236,-37.236 C 493.36,35.299 476.701,18.64 456.145,18.618 Z"
   id="path40" />
		<path
   style="fill:#ff0000"
   d="m 269.964,512 c -30.848,0 -55.855,-25.007 -55.855,-55.855 0,-30.848 25.007,-55.855 55.855,-55.855 30.848,0 55.855,25.007 55.855,55.855 -0.035,30.834 -25.022,55.821 -55.855,55.855 z m 0,-93.091 c -20.565,0 -37.236,16.671 -37.236,37.236 0,20.565 16.671,37.236 37.236,37.236 20.565,0 37.236,-16.671 37.236,-37.236 -0.022,-20.556 -16.68,-37.214 -37.236,-37.236 z"
   id="path42" />
		<path
   style="fill:#ff0000"
   d="M 55.855,493.382 C 25.007,493.382 0,468.375 0,437.527 c 0,-30.848 25.007,-55.855 55.855,-55.855 30.848,0 55.855,25.007 55.855,55.855 -0.035,30.834 -25.022,55.821 -55.855,55.855 z m 0,-93.091 c -20.565,0 -37.236,16.671 -37.236,37.236 0,20.565 16.671,37.236 37.236,37.236 20.565,0 37.236,-16.671 37.236,-37.236 -0.022,-20.556 -16.68,-37.214 -37.236,-37.236 z"
   id="path44" />
		<path
   style="fill:#ff0000"
   d="m 121.018,121.018 c -20.565,0 -37.236,-16.671 -37.236,-37.236 0,-20.565 16.671,-37.236 37.236,-37.236 20.565,0 37.236,16.671 37.236,37.236 -0.021,20.556 -16.68,37.214 -37.236,37.236 z m 0,-55.854 c -10.283,0 -18.618,8.336 -18.618,18.618 0,10.282 8.336,18.618 18.618,18.618 10.282,0 18.618,-8.336 18.618,-18.618 -0.011,-10.278 -8.34,-18.607 -18.618,-18.618 z"
   id="path46" />
		<path
   style="fill:#ff0000"
   d="m 418.909,418.909 c -20.565,0 -37.236,-16.671 -37.236,-37.236 0,-20.565 16.671,-37.236 37.236,-37.236 20.565,0 37.236,16.671 37.236,37.236 -0.021,20.556 -16.68,37.214 -37.236,37.236 z m 0,-55.854 c -10.283,0 -18.618,8.336 -18.618,18.618 0,10.283 8.336,18.618 18.618,18.618 10.282,0 18.618,-8.336 18.618,-18.618 -0.011,-10.278 -8.34,-18.607 -18.618,-18.618 z"
   id="path48" />
		<path
   style="fill:#ff0000"
   d="m 269.964,418.909 c -2.469,0.001 -4.837,-0.98 -6.583,-2.726 -1.746,-1.746 -2.727,-4.114 -2.726,-6.583 V 297.891 c 0,-5.141 4.168,-9.309 9.309,-9.309 5.141,0 9.309,4.168 9.309,9.309 V 409.6 c 10e-4,2.469 -0.98,4.837 -2.726,6.583 -1.746,1.746 -4.114,2.727 -6.583,2.726 z"
   id="path50" />
		<path
   style="fill:#ff0000"
   d="m 316.509,195.491 c -3.765,-0.001 -7.158,-2.269 -8.599,-5.747 -1.441,-3.478 -0.644,-7.481 2.017,-10.144 l 102.4,-102.4 c 2.344,-2.387 5.789,-3.332 9.023,-2.476 3.234,0.856 5.76,3.382 6.616,6.616 0.856,3.234 -0.089,6.679 -2.476,9.023 l -102.4,102.4 c -1.743,1.749 -4.112,2.731 -6.581,2.728 z"
   id="path52" />
		<path
   style="fill:#ff0000"
   d="m 93.091,418.909 c -3.765,-10e-4 -7.158,-2.269 -8.599,-5.747 -1.441,-3.478 -0.644,-7.481 2.017,-10.144 L 216.836,272.691 c 3.644,-3.579 9.492,-3.552 13.104,0.059 3.612,3.612 3.638,9.459 0.059,13.104 L 99.672,416.182 c -1.743,1.748 -4.112,2.73 -6.581,2.727 z"
   id="path54" />
		<path
   style="fill:#ff0000"
   d="m 223.418,195.491 c -2.469,0.003 -4.838,-0.979 -6.582,-2.728 l -83.782,-83.782 c -3.579,-3.644 -3.552,-9.492 0.059,-13.104 3.612,-3.612 9.459,-3.638 13.104,-0.059 L 230,179.6 c 2.662,2.662 3.458,6.666 2.017,10.144 -1.441,3.478 -4.834,5.746 -8.599,5.747 z"
   id="path56" />
		<path
   style="fill:#ff0000"
   d="m 400.291,372.364 c -2.469,0.003 -4.838,-0.979 -6.582,-2.728 l -83.782,-83.782 c -3.579,-3.644 -3.552,-9.492 0.059,-13.104 3.612,-3.612 9.459,-3.638 13.104,-0.059 l 83.782,83.782 c 2.662,2.662 3.458,6.666 2.017,10.144 -1.44,3.478 -4.834,5.746 -8.598,5.747 z"
   id="path58" />
	</g>
</g>
<g
   id="g64">
</g>
<g
   id="g66">
</g>
<g
   id="g68">
</g>
<g
   id="g70">
</g>
<g
   id="g72">
</g>
<g
   id="g74">
</g>
<g
   id="g76">
</g>
<g
   id="g78">
</g>
<g
   id="g80">
</g>
<g
   id="g82">
</g>
<g
   id="g84">
</g>
<g
   id="g86">
</g>
<g
   id="g88">
</g>
<g
   id="g90">
</g>
<g
   id="g92">
</g>
</svg>
