<?xml version="1.0" encoding="UTF-8" standalone="no"?>
<svg
   xmlns:dc="http://purl.org/dc/elements/1.1/"
   xmlns:cc="http://creativecommons.org/ns#"
   xmlns:rdf="http://www.w3.org/1999/02/22-rdf-syntax-ns#"
   xmlns:svg="http://www.w3.org/2000/svg"
   xmlns="http://www.w3.org/2000/svg"
   xmlns:sodipodi="http://sodipodi.sourceforge.net/DTD/sodipodi-0.dtd"
   xmlns:inkscape="http://www.inkscape.org/namespaces/inkscape"
   id="Layer_1"
   enable-background="new 0 0 512 512"
   height="512"
   viewBox="0 0 512 512"
   width="512"
   version="1.1"
   sodipodi:docname="plug_connected.svg"
   inkscape:version="0.92.4 5da689c313, 2019-01-14">
  <metadata
     id="metadata15">
    <rdf:RDF>
      <cc:Work
         rdf:about="">
        <dc:format>image/svg+xml</dc:format>
        <dc:type
           rdf:resource="http://purl.org/dc/dcmitype/StillImage" />
        <dc:title></dc:title>
      </cc:Work>
    </rdf:RDF>
  </metadata>
  <defs
     id="defs13" />
  <sodipodi:namedview
     pagecolor="#ffffff"
     bordercolor="#666666"
     borderopacity="1"
     objecttolerance="10"
     gridtolerance="10"
     guidetolerance="10"
     inkscape:pageopacity="0"
     inkscape:pageshadow="2"
     inkscape:window-width="1366"
     inkscape:window-height="715"
     id="namedview11"
     showgrid="false"
     inkscape:zoom="0.921875"
     inkscape:cx="180.49942"
     inkscape:cy="268.18938"
     inkscape:window-x="0"
     inkscape:window-y="0"
     inkscape:window-maximized="1"
     inkscape:current-layer="Layer_1" />
  <path
     d="m 455.314,56.687 c -6.248,-6.249 -16.379,-6.249 -22.627,0 L 340,149.373 c -5.008,-5.008 -5.089,-5.189 -5.089,-5.088 -28.137,-28.138 -73.681,-28.141 -101.822,0 L 204,173.373 l -4.686,-4.686 c -6.248,-6.249 -16.379,-6.249 -22.627,0 -6.249,6.248 -6.249,16.379 0,22.627 l 144,144 c 3.124,3.124 7.219,4.686 11.313,4.686 14.125,0 21.424,-17.205 11.313,-27.313 l -4.686,-4.686 29.089,-29.089 c 28.072,-28.073 28.072,-73.75 0,-101.824 L 362.628,172 455.314,79.314 c 6.249,-6.248 6.249,-16.379 0,-22.627 z M 345.089,256.285 316,285.373 226.628,196 255.716,166.912 c 15.635,-15.633 40.933,-15.633 56.568,0 0,0.1 -1.566,-1.565 32.805,32.804 15.596,15.596 15.596,40.973 0,56.569 z"
     id="path2"
     inkscape:connector-curvature="0"
     style="display:inline" />
  <path
     id="path4"
     style="display:inline"
     d="m 156.68445,188.68455 c -6.249,6.248 -6.249,16.37942 0,22.62742 l 4.68597,4.68596 -29.08806,29.08806 c -28.072,28.073 -28.072,73.75212 0,101.82613 l 5.08786,5.08786 -92.683467,92.68623 c -6.249002,6.248 -6.249005,16.37941 10e-7,22.62741 6.246999,6.24801 16.379411,6.249 22.627416,0 l 92.68481,-92.68764 5.09062,5.09062 c 0,-0.971 16.94331,21.08752 50.9103,21.08752 19.231,0 37.31231,-7.48953 50.91031,-21.08753 l 29.08943,-29.08943 c 4.95901,4.959 8.33168,9.37332 15.99968,9.37331 14.125,0 21.42333,-17.20537 11.31233,-27.31338 l -16.37533,-16.37533 c -1.55888,-1.07269 -3.13794,-2.37288 -4.71634,-3.95123 -1.089,-1.08895 -2.17871,-2.17856 -3.26761,-3.26761 -1.36753,-1.36766 -2.73368,-2.73466 -4.10178,-4.10177 -2.86208,-2.86293 -5.7228,-5.72987 -8.59027,-8.58744 -1.3975,-1.39184 -2.99235,-2.74457 -4.26201,-4.25918 -0.91961,-1.09717 -1.68035,-2.32867 -2.65856,-3.37395 -0.76433,-0.8168 1.342,1.79018 2.0136,2.6848 -0.0421,-0.0463 -0.0821,-0.0948 -0.1243,-0.14086 -1.79785,-1.75273 -7.81197,-6.86009 -8.64688,-9.3595 l -49.95599,-49.95598 0.73887,-0.73887 c -0.68693,-0.76415 -1.39126,-1.51091 -2.11996,-2.23593 0.0899,0.68841 -0.35543,-0.0225 -0.72643,-0.70989 -0.16539,-0.16115 -0.32973,-0.32407 -0.49594,-0.48462 -0.8708,-0.30942 -1.80212,-0.93412 -3.32974,-1.74981 -3.11742,-3.08815 -6.1595,-6.24931 -9.25179,-9.36225 -2.39922,-2.28593 -1.49136,-1.44694 -4.06725,-3.78827 -0.71057,-0.64581 -2.09426,-0.97415 -2.13513,-1.93349 -0.0307,-0.72105 -0.0331,-1.32568 -0.0428,-1.95974 -0.0829,-0.0829 -0.16573,-0.16573 -0.24859,-0.24859 -0.0607,-0.0607 -0.12154,-0.12153 -0.1823,-0.1823 l -0.7665,0.7665 -20.68701,-20.68702 c -6.248,-6.249 -16.37942,-6.24901 -22.62742,0 z m 77.89914,-13.89769 c 0.0588,0.0207 0.11781,0.0489 0.17677,0.0718 -0.003,-0.0804 -0.008,-0.15459 -0.01,-0.23616 l -0.001,-0.001 z m 12.12577,-8.28365 c -0.0808,0.035 0.37573,0.35961 0.72922,0.49167 0.0741,-0.10875 0.14497,-0.21738 0.2237,-0.32595 -0.30121,-0.0438 -0.59954,-0.0965 -0.88388,-0.16296 -0.0353,-0.008 -0.0576,-0.008 -0.0691,-0.003 z m -43.20946,45.52691 c -0.22835,0.28662 0.40964,0.46805 1.17943,0.4889 -0.23522,-0.23524 -0.4705,-0.4705 -0.70572,-0.70572 -0.005,-0.004 -0.01,-0.009 -0.0152,-0.0124 -0.0913,-0.0631 -0.20847,0.0706 -0.3135,0.10634 -0.0654,0.0428 -0.11382,0.0837 -0.14499,0.12293 z m -48.59012,55.68604 29.09085,-29.08802 89.37028,89.37029 -29.08802,29.09084 c -15.6347,15.63329 -40.93216,15.63163 -56.56716,-10e-4 0,-0.1 1.56495,1.56603 -32.80592,-32.8031 -15.59601,-15.596 -15.596,-40.97254 0,-56.56854 z m 146.81995,36.51405 c -0.0902,-0.0599 1.04578,1.26854 1.49846,1.67524 -0.71889,-0.81153 -1.4579,-1.6483 -1.49846,-1.67524 z m 48.89119,-43.61273 c -0.001,0.007 0.0106,0.0294 0.0442,0.0691 0.37388,0.44219 0.76224,0.87438 1.14767,1.30788 -0.0842,-0.15899 -0.14559,-0.27979 -0.23892,-0.45437 -0.17126,-0.32045 -0.94228,-0.97608 -0.95295,-0.92254 z m 6.43578,-5.70106 c -0.23349,1.11455 -0.50195,2.21714 -0.77064,3.32009 1.28293,-1.53639 2.22269,-3.25691 2.83947,-5.06576 -0.6779,0.66377 -1.3713,1.2709 -2.06883,1.74567 z"
     inkscape:connector-curvature="0" />
  <path
     d="m 170.687,286.686 c -6.249,6.249 -6.249,16.379 0,22.628 l 32,32 c 6.248,6.248 16.379,6.248 22.627,0 6.249,-6.249 6.249,-16.379 0,-22.628 l -32,-32 c -6.248,-6.248 -16.379,-6.248 -22.627,0 z"
     id="path6"
     inkscape:connector-curvature="0" />
  <path
     d="m 299.314,180.686 c -6.248,-6.248 -16.379,-6.248 -22.627,0 -6.249,6.249 -6.249,16.379 0,22.628 l 32,32 c 3.124,3.124 7.219,4.686 11.313,4.686 14.127,0 21.422,-17.206 11.313,-27.314 z"
     id="path8"
     inkscape:connector-curvature="0" />
  <path
     inkscape:connector-curvature="0"
     style="fill:currentColor;fill-opacity:1;stroke:none;stroke-width:32"
     d="M -1.55e-6,2.3500001e-6 V 32.000003 128 H 31.999999 V 32.000003 H 128 V 2.3500001e-6 H 31.999999 Z m 383.99999155,0 V 32.000003 H 480 V 128 h 32 V 2.3500001e-6 Z M -1.55e-6,384 V 512 H 31.999999 128 V 480 H 31.999999 V 384 Z M 480,384 v 96 h -96.00001 v 32 H 512 v -32 -96 z"
     class="ColorScheme-Text"
     id="path4-3"
     sodipodi:nodetypes="cccccccccccccccccccccccccccccccc" />
</svg>
