<svg id="Layer_1" enable-background="new 0 0 512 512" height="512" viewBox="0 0 512 512" width="512" xmlns="http://www.w3.org/2000/svg"><path d="m507.314 4.687c-6.248-6.249-16.379-6.249-22.627 0l-92.687 92.686c-5.008-5.008-5.089-5.189-5.089-5.088-28.137-28.138-73.681-28.141-101.822 0l-29.089 29.088-4.686-4.686c-6.248-6.249-16.379-6.249-22.627 0-6.249 6.248-6.249 16.379 0 22.627l144 144c3.124 3.124 7.219 4.686 11.313 4.686 14.125 0 21.424-17.205 11.313-27.313l-4.686-4.686 29.089-29.089c28.072-28.073 28.072-73.75 0-101.824l-5.088-5.088 92.686-92.686c6.249-6.248 6.249-16.379 0-22.627zm-110.225 199.598-29.089 29.088-89.372-89.373 29.088-29.088c15.635-15.633 40.933-15.633 56.568 0 0 .1-1.566-1.565 32.805 32.804 15.596 15.596 15.596 40.973 0 56.569z"/><path d="m292.687 276.687-52.687 52.686-57.373-57.373 52.687-52.687c6.249-6.248 6.249-16.379 0-22.627-6.248-6.249-16.379-6.249-22.627 0l-52.687 52.687c-4.098-4.098-15.363-15.363-20.687-20.687-6.248-6.249-16.379-6.249-22.627 0-6.249 6.248-6.249 16.379 0 22.627l4.686 4.686-29.089 29.089c-28.072 28.073-28.072 73.75 0 101.824l5.088 5.088-92.684 92.687c-6.249 6.248-6.249 16.379 0 22.627 6.247 6.248 16.379 6.249 22.627 0l92.686-92.687 5.089 5.089c0-.971 16.944 21.088 50.911 21.088 19.231 0 37.313-7.49 50.911-21.088l29.089-29.088c4.959 4.959 8.332 9.373 16 9.373 14.125 0 21.424-17.205 11.313-27.313-7.024-7.024-14.627-14.627-20.687-20.687l52.687-52.687c6.249-6.248 6.249-16.379 0-22.627-6.247-6.249-16.378-6.249-22.626 0zm-88.403 120.402c-15.635 15.633-40.933 15.633-56.568 0 0-.1 1.566 1.565-32.805-32.804-15.596-15.596-15.596-40.973 0-56.569l29.089-29.088 89.372 89.372z"/><path d="m132.687 324.686c-6.249 6.249-6.249 16.379 0 22.628l32 32c6.248 6.248 16.379 6.248 22.627 0 6.249-6.249 6.249-16.379 0-22.628l-32-32c-6.248-6.248-16.379-6.248-22.627 0z"/><path d="m347.314 132.686c-6.248-6.248-16.379-6.248-22.627 0-6.249 6.249-6.249 16.379 0 22.628l32 32c3.124 3.124 7.219 4.686 11.313 4.686 14.127 0 21.422-17.206 11.313-27.314z"/></svg>