<?xml version="1.0" encoding="UTF-8" standalone="no"?>
<!-- Generator: Adobe Illustrator 19.0.0, SVG Export Plug-In . SVG Version: 6.00 Build 0)  -->

<svg
   xmlns:dc="http://purl.org/dc/elements/1.1/"
   xmlns:cc="http://creativecommons.org/ns#"
   xmlns:rdf="http://www.w3.org/1999/02/22-rdf-syntax-ns#"
   xmlns:svg="http://www.w3.org/2000/svg"
   xmlns="http://www.w3.org/2000/svg"
   xmlns:sodipodi="http://sodipodi.sourceforge.net/DTD/sodipodi-0.dtd"
   xmlns:inkscape="http://www.inkscape.org/namespaces/inkscape"
   version="1.1"
   id="Capa_1"
   x="0px"
   y="0px"
   viewBox="0 0 510.127 510.127"
   style="enable-background:new 0 0 510.127 510.127;"
   xml:space="preserve"
   width="512"
   height="512"
   sodipodi:docname="ready.svg"
   inkscape:version="0.92.4 5da689c313, 2019-01-14"><metadata
   id="metadata111"><rdf:RDF><cc:Work
       rdf:about=""><dc:format>image/svg+xml</dc:format><dc:type
         rdf:resource="http://purl.org/dc/dcmitype/StillImage" /><dc:title></dc:title></cc:Work></rdf:RDF></metadata><defs
   id="defs109" /><sodipodi:namedview
   pagecolor="#ffffff"
   bordercolor="#666666"
   borderopacity="1"
   objecttolerance="10"
   gridtolerance="10"
   guidetolerance="10"
   inkscape:pageopacity="0"
   inkscape:pageshadow="2"
   inkscape:window-width="1366"
   inkscape:window-height="715"
   id="namedview107"
   showgrid="false"
   inkscape:zoom="0.4609375"
   inkscape:cx="256"
   inkscape:cy="256"
   inkscape:window-x="0"
   inkscape:window-y="0"
   inkscape:window-maximized="1"
   inkscape:current-layer="g104" />
<g
   id="g104">
	<path
   d="m 252.563,95.842 c -87.742,0 -159.125,71.383 -159.125,159.125 0,87.742 71.383,159.125 159.125,159.125 87.742,0 159.125,-71.383 159.125,-159.125 0,-87.742 -71.382,-159.125 -159.125,-159.125 z m 0,303.25 c -79.471,0 -144.125,-64.654 -144.125,-144.125 0,-79.471 64.654,-144.125 144.125,-144.125 79.471,0 144.125,64.654 144.125,144.125 0,79.471 -64.654,144.125 -144.125,144.125 z"
   id="path2"
   inkscape:connector-curvature="0" />
	<path
   d="m 252.563,118.342 c -75.335,0 -136.625,61.29 -136.625,136.625 0,75.335 61.29,136.625 136.625,136.625 75.335,0 136.625,-61.29 136.625,-136.625 0,-75.335 -61.29,-136.625 -136.625,-136.625 z m 0,258.25 c -67.064,0 -121.625,-54.561 -121.625,-121.625 0,-67.064 54.561,-121.625 121.625,-121.625 67.064,0 121.625,54.561 121.625,121.625 0,67.064 -54.56,121.625 -121.625,121.625 z"
   id="path4"
   inkscape:connector-curvature="0" />
	<path
   d="m 318.508,171.971 -9.338,11.738 c 7.126,5.669 13.35,12.349 18.497,19.853 l 12.369,-8.485 c -5.991,-8.734 -13.234,-16.508 -21.528,-23.106 z"
   id="path6"
   inkscape:connector-curvature="0" />
	<path
   d="m 185.773,193.159 -11.006,-10.19 c -7.213,7.79 -13.195,16.574 -17.781,26.109 l 13.518,6.502 c 3.937,-8.186 9.075,-15.729 15.269,-22.421 z"
   id="path8"
   inkscape:connector-curvature="0" />
	<path
   d="m 342.529,241.198 14.83,-2.25 c -1.591,-10.487 -4.743,-20.642 -9.369,-30.181 l -13.496,6.545 c 3.967,8.182 6.67,16.891 8.035,25.886 z"
   id="path10"
   inkscape:connector-curvature="0" />
	<path
   d="m 343.563,254.967 c 0,9.145 -1.351,18.168 -4.015,26.822 l 14.336,4.413 c 3.104,-10.084 4.679,-20.593 4.679,-31.235 v -0.218 h -15 z"
   id="path12"
   inkscape:connector-curvature="0" />
	<path
   d="m 219.188,170.28 -5.504,-13.954 c -9.843,3.882 -19.037,9.217 -27.328,15.855 l 9.375,11.709 c 7.12,-5.7 15.011,-10.279 23.457,-13.61 z"
   id="path14"
   inkscape:connector-curvature="0" />
	<path
   d="m 161.564,255.076 -0.001,-0.109 c 0,-9.111 1.341,-18.103 3.985,-26.724 l -14.34,-4.399 c -3.083,10.048 -4.646,20.52 -4.646,31.123 l 0.003,0.203 5.671,-0.093 h 9.328 z"
   id="path16"
   inkscape:connector-curvature="0" />
	<path
   d="m 305.409,163.06 c -9.198,-5.299 -19.103,-9.168 -29.438,-11.499 l -3.299,14.633 c 8.862,1.999 17.357,5.317 25.248,9.863 z"
   id="path18"
   inkscape:connector-curvature="0" />
	<path
   d="m 245.804,345.72 -1.1,14.96 c 2.596,0.19 5.239,0.287 7.86,0.287 7.971,0 15.92,-0.89 23.626,-2.645 l -3.33,-14.626 c -8.792,2.003 -18.048,2.685 -27.056,2.024 z"
   id="path20"
   inkscape:connector-curvature="0" />
	<path
   d="m 162.582,268.637 -14.832,2.232 c 1.578,10.488 4.719,20.646 9.335,30.191 l 13.504,-6.53 c -3.959,-8.186 -6.652,-16.898 -8.007,-25.893 z"
   id="path22"
   inkscape:connector-curvature="0" />
	<path
   d="m 199.615,346.814 c 9.192,5.31 19.092,9.189 29.424,11.531 l 3.316,-14.629 c -8.861,-2.009 -17.353,-5.336 -25.238,-9.892 z"
   id="path24"
   inkscape:connector-curvature="0" />
	<path
   d="m 177.404,306.288 -12.379,8.472 c 5.981,8.74 13.216,16.522 21.503,23.13 l 9.352,-11.729 c -7.12,-5.678 -13.337,-12.364 -18.476,-19.873 z"
   id="path26"
   inkscape:connector-curvature="0" />
	<path
   d="m 319.285,316.849 10.996,10.202 c 7.221,-7.782 13.213,-16.56 17.809,-26.09 l -13.51,-6.517 c -3.946,8.182 -9.092,15.72 -15.295,22.405 z"
   id="path28"
   inkscape:connector-curvature="0" />
	<path
   d="m 252.558,163.967 c 0.001,0 0.004,0 0.006,0 2.219,0 4.459,0.081 6.659,0.24 l 1.082,-14.961 c -2.559,-0.185 -5.163,-0.279 -7.74,-0.279 -0.003,0 -0.005,0 -0.007,0 -8.009,0 -15.995,0.898 -23.736,2.67 l 3.348,14.622 c 6.644,-1.521 13.503,-2.292 20.388,-2.292 z"
   id="path30"
   inkscape:connector-curvature="0" />
	<path
   d="m 285.845,339.691 5.488,13.96 c 9.848,-3.872 19.048,-9.196 27.347,-15.825 l -9.363,-11.72 c -7.125,5.692 -15.022,10.263 -23.472,13.585 z"
   id="path32"
   inkscape:connector-curvature="0" />
	<rect
   x="178.563"
   y="243.467"
   width="15"
   height="15"
   id="rect34" />
	<rect
   x="313.56299"
   y="243.467"
   width="15"
   height="15"
   id="rect36" />
	
	<path
   d="m 222.691,35.968 -2.006,-14.865 c -4.112,0.555 -8.265,1.228 -12.342,2.001 l 2.795,14.737 c 3.817,-0.723 7.705,-1.354 11.553,-1.873 z"
   id="path40"
   inkscape:connector-curvature="0" />
	<path
   d="m 31.975,268.55 -14.973,0.906 c 0.623,10.294 1.931,20.625 3.887,30.706 l 14.725,-2.856 c -1.832,-9.439 -3.056,-19.114 -3.639,-28.756 z"
   id="path42"
   inkscape:connector-curvature="0" />
	<path
   d="m 38.844,311.439 -14.506,3.821 c 2.623,9.953 5.937,19.829 9.85,29.353 l 13.875,-5.701 c -3.664,-8.914 -6.765,-18.158 -9.219,-27.473 z"
   id="path44"
   inkscape:connector-curvature="0" />
	<path
   d="m 96.57,432.066 c 7.725,6.809 15.971,13.171 24.509,18.91 l 8.367,-12.449 c -7.997,-5.375 -15.722,-11.335 -22.958,-17.713 z"
   id="path46"
   inkscape:connector-curvature="0" />
	<path
   d="m 54.004,352.115 -13.469,6.604 c 4.525,9.229 9.711,18.255 15.414,26.826 l 12.488,-8.31 c -5.34,-8.026 -10.196,-16.478 -14.433,-25.12 z"
   id="path48"
   inkscape:connector-curvature="0" />
	<path
   d="m 64.94,398.142 c 6.245,8.172 13.094,16.014 20.355,23.31 L 95.926,410.87 C 89.124,404.036 82.708,396.689 76.858,389.034 Z"
   id="path50"
   inkscape:connector-curvature="0" />
	<path
   d="m 134.218,459.192 c 8.911,5.176 18.248,9.805 27.75,13.758 l 5.762,-13.85 c -8.895,-3.7 -17.636,-8.034 -25.979,-12.879 z"
   id="path52"
   inkscape:connector-curvature="0" />
	<path
   d="m 176.479,478.432 c 9.75,3.318 19.819,6.018 29.929,8.022 l 2.918,-14.714 c -9.463,-1.876 -18.888,-4.403 -28.015,-7.509 z"
   id="path54"
   inkscape:connector-curvature="0" />
	<path
   d="m 156.246,56.002 -6.547,-13.496 c -9.248,4.486 -18.297,9.634 -26.893,15.303 l 8.258,12.522 c 8.049,-5.308 16.522,-10.128 25.182,-14.329 z"
   id="path56"
   inkscape:connector-curvature="0" />
	<path
   d="M 119.229,78.705 110.17,66.75 c -8.2,6.213 -16.071,13.029 -23.395,20.258 l 10.537,10.675 c 6.862,-6.772 14.236,-13.157 21.917,-18.978 z"
   id="path58"
   inkscape:connector-curvature="0" />
	<path
   d="m 196.992,41.011 -3.76,-14.521 c -9.966,2.581 -19.856,5.853 -29.396,9.726 l 5.643,13.898 c 8.929,-3.625 18.185,-6.688 27.513,-9.103 z"
   id="path60"
   inkscape:connector-curvature="0" />
	<path
   d="M 87.326,108.206 76.115,98.241 c -6.844,7.699 -13.24,15.918 -19.012,24.431 l 12.414,8.418 c 5.408,-7.973 11.399,-15.673 17.809,-22.884 z"
   id="path62"
   inkscape:connector-curvature="0" />
	<path
   d="m 61.771,143.361 -12.939,-7.588 c -5.212,8.889 -9.88,18.206 -13.873,27.693 l 13.824,5.819 c 3.739,-8.881 8.109,-17.603 12.988,-25.924 z"
   id="path64"
   inkscape:connector-curvature="0" />
	<path
   d="m 33.561,225.12 -14.865,-2.006 c -1.371,10.162 -2.088,20.548 -2.13,30.87 l 15,0.061 c 0.038,-9.674 0.709,-19.405 1.995,-28.925 z"
   id="path66"
   inkscape:connector-curvature="0" />
	<path
   d="m 43.599,182.841 -14.18,-4.893 c -3.36,9.738 -6.102,19.796 -8.148,29.895 l 14.701,2.979 c 1.916,-9.452 4.481,-18.866 7.627,-27.981 z"
   id="path68"
   inkscape:connector-curvature="0" />
	<path
   d="m 237.948,465.127 7.142,10.713 c -7.195,-0.241 -14.385,-0.825 -21.458,-1.75 l -1.943,14.873 c 7.767,1.016 15.665,1.646 23.563,1.888 l -7.303,10.955 12.48,8.32 17.773,-26.66 -17.773,-26.66 z"
   id="path70"
   inkscape:connector-curvature="0" />
	<path
   d="m 478.152,241.577 14.973,-0.906 c -0.623,-10.294 -1.931,-20.625 -3.887,-30.706 l -14.725,2.856 c 1.832,9.439 3.056,19.114 3.639,28.756 z"
   id="path72"
   inkscape:connector-curvature="0" />
	<path
   d="m 471.283,198.688 14.506,-3.821 c -2.623,-9.953 -5.937,-19.829 -9.85,-29.353 l -13.875,5.701 c 3.664,8.914 6.765,18.158 9.219,27.473 z"
   id="path74"
   inkscape:connector-curvature="0" />
	<path
   d="m 445.187,111.985 c -6.245,-8.172 -13.094,-16.014 -20.355,-23.31 L 414.2,99.257 c 6.802,6.834 13.218,14.181 19.068,21.836 z"
   id="path76"
   inkscape:connector-curvature="0" />
	<path
   d="M 413.557,78.061 C 405.832,71.252 397.586,64.89 389.048,59.151 L 380.681,71.6 c 7.997,5.375 15.722,11.335 22.958,17.713 z"
   id="path78"
   inkscape:connector-curvature="0" />
	<path
   d="m 456.123,158.012 13.469,-6.604 c -4.525,-9.229 -9.711,-18.255 -15.414,-26.826 l -12.488,8.31 c 5.34,8.026 10.196,16.478 14.433,25.12 z"
   id="path80"
   inkscape:connector-curvature="0" />
	<path
   d="m 313.135,469.116 3.76,14.521 c 9.966,-2.581 19.856,-5.853 29.396,-9.726 l -5.643,-13.898 c -8.929,3.625 -18.185,6.688 -27.513,9.103 z"
   id="path82"
   inkscape:connector-curvature="0" />
	<path
   d="m 448.354,366.766 12.939,7.588 c 5.212,-8.889 9.88,-18.206 13.873,-27.693 l -13.824,-5.819 c -3.738,8.881 -8.108,17.603 -12.988,25.924 z"
   id="path84"
   inkscape:connector-curvature="0" />
	<path
   d="m 390.898,431.422 9.059,11.955 c 8.2,-6.213 16.071,-13.029 23.395,-20.258 l -10.537,-10.676 c -6.862,6.773 -14.236,13.159 -21.917,18.979 z"
   id="path86"
   inkscape:connector-curvature="0" />
	<path
   d="m 422.801,401.921 11.211,9.965 c 6.844,-7.699 13.24,-15.918 19.012,-24.431 l -12.414,-8.418 c -5.408,7.973 -11.399,15.672 -17.809,22.884 z"
   id="path88"
   inkscape:connector-curvature="0" />
	<path
   d="m 375.909,50.935 c -8.911,-5.176 -18.248,-9.805 -27.75,-13.758 l -5.762,13.85 c 8.895,3.7 17.636,8.034 25.979,12.879 z"
   id="path90"
   inkscape:connector-curvature="0" />
	<path
   d="m 478.562,256.082 c -0.039,9.674 -0.71,19.405 -1.995,28.925 l 14.865,2.006 c 1.371,-10.162 2.088,-20.548 2.13,-30.87 z"
   id="path92"
   inkscape:connector-curvature="0" />
	<path
   d="m 466.528,327.286 14.18,4.893 c 3.36,-9.738 6.102,-19.796 8.148,-29.895 l -14.701,-2.979 c -1.916,9.452 -4.481,18.866 -7.627,27.981 z"
   id="path94"
   inkscape:connector-curvature="0" />
	<path
   d="m 353.881,454.125 6.547,13.496 c 9.248,-4.486 18.297,-9.634 26.893,-15.303 l -8.258,-12.522 c -8.049,5.308 -16.522,10.128 -25.182,14.329 z"
   id="path96"
   inkscape:connector-curvature="0" />
	<path
   d="m 333.648,31.695 c -9.75,-3.318 -19.819,-6.018 -29.929,-8.022 l -2.918,14.714 c 9.463,1.876 18.888,4.403 28.015,7.509 z"
   id="path98"
   inkscape:connector-curvature="0" />
	<path
   d="m 287.435,474.159 2.008,14.865 c 4.114,-0.556 8.267,-1.229 12.341,-2.002 l -2.795,-14.737 c -3.815,0.723 -7.702,1.354 -11.554,1.874 z"
   id="path100"
   inkscape:connector-curvature="0" />
	<path
   d="m 272.179,45 -7.142,-10.713 c 7.195,0.241 14.385,0.825 21.458,1.75 l 1.943,-14.873 c -7.767,-1.016 -15.665,-1.646 -23.563,-1.888 L 272.178,8.321 259.698,0 241.925,26.66 259.698,53.32 Z"
   id="path102"
   inkscape:connector-curvature="0" />
</g>















</svg>