<svg id="outline" height="512" viewBox="0 0 512 512" width="512" xmlns="http://www.w3.org/2000/svg"><path d="m104 16a40.04552 40.04552 0 0 0 -40 40v400a40.04552 40.04552 0 0 0 40 40h304a40.04552 40.04552 0 0 0 40-40v-298.74512a39.74371 39.74371 0 0 0 -11.71582-28.28515l-101.25488-101.25391.00049.001a39.734 39.734 0 0 0 -28.28467-11.71682zm320.97021 124.2832a23.84779 23.84779 0 0 1 7.02979 16.97168v82.74512h-96v16h96v200a24.0275 24.0275 0 0 1 -24 24h-304a24.0275 24.0275 0 0 1 -24-24v-200h96v-16h-96v-184a24.0275 24.0275 0 0 1 24-24h202.74512a24.203 24.203 0 0 1 5.25488.58081v79.41919a40.04552 40.04552 0 0 0 40 40h48v-16h-48a24.02718 24.02718 0 0 1 -24-24v-68.68555z"/><path d="m312 288v-48a56 56 0 0 0 -112 0v48h-24a8.00008 8.00008 0 0 0 -8 8v128a8.00008 8.00008 0 0 0 8 8h160a8.00008 8.00008 0 0 0 8-8v-128a8.00008 8.00008 0 0 0 -8-8zm-96-48a40 40 0 0 1 80 0v48h-80zm112 176h-144v-112h144z"/><path d="m256 376a15.99665 15.99665 0 0 0 13.835-8h26.165v-16h-26.165a15.963 15.963 0 0 0 -27.67 0h-26.165v16h26.165a15.99665 15.99665 0 0 0 13.835 8z"/><path d="m192 64h96v16h-96z"/><path d="m152 64h16v16h-16z"/><path d="m224 112h64v16h-64z"/><path d="m160 112h40v16h-40z"/><path d="m112 112h24v16h-24z"/></svg>