<?xml version="1.0" encoding="UTF-8" standalone="no"?>
<!-- Generator: Adobe Illustrator 19.0.0, SVG Export Plug-In . SVG Version: 6.00 Build 0)  -->

<svg
   xmlns:dc="http://purl.org/dc/elements/1.1/"
   xmlns:cc="http://creativecommons.org/ns#"
   xmlns:rdf="http://www.w3.org/1999/02/22-rdf-syntax-ns#"
   xmlns:svg="http://www.w3.org/2000/svg"
   xmlns="http://www.w3.org/2000/svg"
   xmlns:sodipodi="http://sodipodi.sourceforge.net/DTD/sodipodi-0.dtd"
   xmlns:inkscape="http://www.inkscape.org/namespaces/inkscape"
   version="1.1"
   id="Capa_1"
   x="0px"
   y="0px"
   viewBox="0 0 512.00001 512.00001"
   xml:space="preserve"
   sodipodi:docname="refresh.svg"
   width="512"
   height="512"
   inkscape:version="0.92.4 5da689c313, 2019-01-14"><metadata
   id="metadata43"><rdf:RDF><cc:Work
       rdf:about=""><dc:format>image/svg+xml</dc:format><dc:type
         rdf:resource="http://purl.org/dc/dcmitype/StillImage" /></cc:Work></rdf:RDF></metadata><defs
   id="defs41" /><sodipodi:namedview
   pagecolor="#ffffff"
   bordercolor="#666666"
   borderopacity="1"
   objecttolerance="10"
   gridtolerance="10"
   guidetolerance="10"
   inkscape:pageopacity="0"
   inkscape:pageshadow="2"
   inkscape:window-width="1366"
   inkscape:window-height="715"
   id="namedview39"
   showgrid="false"
   inkscape:zoom="0.48042082"
   inkscape:cx="190.98077"
   inkscape:cy="245.61801"
   inkscape:window-x="0"
   inkscape:window-y="0"
   inkscape:window-maximized="1"
   inkscape:current-layer="Capa_1" />
<g
   id="g6"
   transform="matrix(1.3404476,0,0,1.042269,-73.238342,-1.7543949e-5)">
	<g
   id="g4">
		<path
   d="m 55.89,262.818 c -3,-26 -0.5,-51.1 6.3,-74.3 22.6,-77.1 93.5,-133.8 177.6,-134.8 v -50.4 c 0,-2.8 3.5,-4.3 5.8,-2.6 l 103.7,76.2 c 1.7,1.3 1.7,3.9 0,5.1 l -103.6,76.2 c -2.4,1.7 -5.8,0.2 -5.8,-2.6 v -50.3 c -55.3,0.9 -102.5,35 -122.8,83.2 -7.7,18.2 -11.6,38.3 -10.5,59.4 1.5,29 12.4,55.7 29.6,77.3 9.2,11.5 7,28.3 -4.9,37 -11.3,8.3 -27.1,6 -35.8,-5 -21.3,-26.6 -35.5,-59 -39.6,-94.4 z m 299.4,-96.8 c 17.3,21.5 28.2,48.3 29.6,77.3 1.1,21.2 -2.9,41.3 -10.5,59.4 -20.3,48.2 -67.5,82.4 -122.8,83.2 v -50.3 c 0,-2.8 -3.5,-4.3 -5.8,-2.6 l -103.7,76.2 c -1.7,1.3 -1.7,3.9 0,5.1 l 103.6,76.2 c 2.4,1.7 5.8,0.2 5.8,-2.6 v -50.4 c 84.1,-0.9 155.1,-57.6 177.6,-134.8 6.8,-23.2 9.2,-48.3 6.3,-74.3 -4,-35.4 -18.2,-67.8 -39.5,-94.4 -8.8,-11 -24.5,-13.3 -35.8,-5 -11.8,8.7 -14,25.5 -4.8,37 z"
   id="path2"
   inkscape:connector-curvature="0" />
	</g>
</g>
<g
   id="g8"
   transform="matrix(1.3404476,0,0,1.042269,-73.238342,-1.7543949e-5)">
</g>
<g
   id="g10"
   transform="matrix(1.3404476,0,0,1.042269,-73.238342,-1.7543949e-5)">
</g>
<g
   id="g12"
   transform="matrix(1.3404476,0,0,1.042269,-73.238342,-1.7543949e-5)">
</g>
<g
   id="g14"
   transform="matrix(1.3404476,0,0,1.042269,-73.238342,-1.7543949e-5)">
</g>
<g
   id="g16"
   transform="matrix(1.3404476,0,0,1.042269,-73.238342,-1.7543949e-5)">
</g>
<g
   id="g18"
   transform="matrix(1.3404476,0,0,1.042269,-73.238342,-1.7543949e-5)">
</g>
<g
   id="g20"
   transform="matrix(1.3404476,0,0,1.042269,-73.238342,-1.7543949e-5)">
</g>
<g
   id="g22"
   transform="matrix(1.3404476,0,0,1.042269,-73.238342,-1.7543949e-5)">
</g>
<g
   id="g24"
   transform="matrix(1.3404476,0,0,1.042269,-73.238342,-1.7543949e-5)">
</g>
<g
   id="g26"
   transform="matrix(1.3404476,0,0,1.042269,-73.238342,-1.7543949e-5)">
</g>
<g
   id="g28"
   transform="matrix(1.3404476,0,0,1.042269,-73.238342,-1.7543949e-5)">
</g>
<g
   id="g30"
   transform="matrix(1.3404476,0,0,1.042269,-73.238342,-1.7543949e-5)">
</g>
<g
   id="g32"
   transform="matrix(1.3404476,0,0,1.042269,-73.238342,-1.7543949e-5)">
</g>
<g
   id="g34"
   transform="matrix(1.3404476,0,0,1.042269,-73.238342,-1.7543949e-5)">
</g>
<g
   id="g36"
   transform="matrix(1.3404476,0,0,1.042269,-73.238342,-1.7543949e-5)">
</g>
</svg>