<?xml version="1.0" encoding="UTF-8" standalone="no"?>
<svg
   xmlns:dc="http://purl.org/dc/elements/1.1/"
   xmlns:cc="http://creativecommons.org/ns#"
   xmlns:rdf="http://www.w3.org/1999/02/22-rdf-syntax-ns#"
   xmlns:svg="http://www.w3.org/2000/svg"
   xmlns="http://www.w3.org/2000/svg"
   xmlns:sodipodi="http://sodipodi.sourceforge.net/DTD/sodipodi-0.dtd"
   xmlns:inkscape="http://www.inkscape.org/namespaces/inkscape"
   viewBox="0 0 64 64"
   width="512"
   height="512"
   version="1.1"
   id="svg17"
   sodipodi:docname="rs-232-male.svg"
   inkscape:version="0.92.4 5da689c313, 2019-01-14">
  <metadata
     id="metadata23">
    <rdf:RDF>
      <cc:Work
         rdf:about="">
        <dc:format>image/svg+xml</dc:format>
        <dc:type
           rdf:resource="http://purl.org/dc/dcmitype/StillImage" />
        <dc:title />
      </cc:Work>
    </rdf:RDF>
  </metadata>
  <defs
     id="defs21">
    <linearGradient
       id="SVGID_1_"
       gradientUnits="userSpaceOnUse"
       x1="12.692535"
       y1="8.5"
       x2="12.692535"
       y2="19">
      <stop
         offset="0"
         style="stop-color:#010101;stop-opacity:0.1"
         id="stop46" />
      <stop
         offset="1"
         style="stop-color:#010101;stop-opacity:0"
         id="stop48" />
    </linearGradient>
    <linearGradient
       id="SVGID_2_"
       gradientUnits="userSpaceOnUse"
       x1="-0.32459289"
       y1="6.2529478"
       x2="24.324593"
       y2="17.747051">
      <stop
         offset="0"
         style="stop-color:#FFFFFF;stop-opacity:0.2"
         id="stop53" />
      <stop
         offset="1"
         style="stop-color:#FFFFFF;stop-opacity:0"
         id="stop55" />
    </linearGradient>
  </defs>
  <sodipodi:namedview
     pagecolor="#ffffff"
     bordercolor="#666666"
     borderopacity="1"
     objecttolerance="10"
     gridtolerance="10"
     guidetolerance="10"
     inkscape:pageopacity="0"
     inkscape:pageshadow="2"
     inkscape:window-width="1366"
     inkscape:window-height="715"
     id="namedview19"
     showgrid="false"
     inkscape:zoom="0.62225397"
     inkscape:cx="241.75618"
     inkscape:cy="375.78291"
     inkscape:window-x="0"
     inkscape:window-y="0"
     inkscape:window-maximized="1"
     inkscape:current-layer="svg17"
     inkscape:snap-center="false" />
  <path
     inkscape:connector-curvature="0"
     style="display:inline;fill:#ffff00;stroke-width:1.33745217"
     d="M 53.635321,49.320006 H 10.435614 c -3.2098854,0 -5.8847898,-2.407414 -6.4197707,-5.617299 L 0.67221281,22.437217 C 0.40472237,20.431038 0.93970325,18.42486 2.1434102,16.953663 3.3471172,15.482465 5.0858051,14.679994 6.9582382,14.679994 H 56.978951 c 1.872433,0 3.611121,0.802471 4.814828,2.273669 1.337452,1.471197 1.872433,3.477375 1.471198,5.483554 l -3.477376,21.399235 c -0.267491,3.209885 -2.942395,5.483554 -6.15228,5.483554 z"
     id="path2" />
  <path
     inkscape:connector-curvature="0"
     style="display:inline;fill:#ffffff;stroke-width:1.33745217"
     d="m 53.501576,24.042159 c 1.069961,0 2.006178,0.936217 2.006178,2.006179 0,1.069961 -0.936217,2.006178 -2.006178,2.006178 -1.069962,0 -2.006179,-0.936217 -2.006179,-2.006178 0,-1.069962 0.936217,-2.006179 2.006179,-2.006179 m -10.699618,0 c 1.069962,0 2.006178,0.936217 2.006178,2.006179 0,1.069961 -0.936216,2.006178 -2.006178,2.006178 -1.069962,0 -2.006179,-0.936217 -2.006179,-2.006178 0,-1.069962 0.936217,-2.006179 2.006179,-2.006179 m -10.699618,0 c 1.069962,0 2.006178,0.936217 2.006178,2.006179 0,1.069961 -0.936216,2.006178 -2.006178,2.006178 -1.069962,0 -2.006178,-0.936217 -2.006178,-2.006178 0,-1.069962 0.936216,-2.006179 2.006178,-2.006179 m -10.699618,0 c 1.069962,0 2.006179,0.936217 2.006179,2.006179 0,1.069961 -0.936217,2.006178 -2.006179,2.006178 -1.069961,0 -2.006178,-0.936217 -2.006178,-2.006178 0,-1.069962 0.936217,-2.006179 2.006178,-2.006179 m -10.699618,0 c 1.069962,0 2.006179,0.936217 2.006179,2.006179 0,1.069961 -0.936217,2.006178 -2.006179,2.006178 -1.0699614,0 -2.0061779,-0.936217 -2.0061779,-2.006178 0,-1.069962 0.9362165,-2.006179 2.0061779,-2.006179 m 37.448663,10.699618 c 1.069961,0 2.006178,0.936217 2.006178,2.006178 0,1.069962 -0.936217,2.006179 -2.006178,2.006179 -1.069962,0 -2.006179,-0.936217 -2.006179,-2.006179 0,-1.069961 0.936217,-2.006178 2.006179,-2.006178 m -10.699618,0 c 1.069962,0 2.006178,0.936217 2.006178,2.006178 0,1.069962 -0.936216,2.006179 -2.006178,2.006179 -1.069962,0 -2.006178,-0.936217 -2.006178,-2.006179 0,-1.069961 0.936216,-2.006178 2.006178,-2.006178 m -10.699618,0 c 1.069962,0 2.006179,0.936217 2.006179,2.006178 0,1.069962 -0.936217,2.006179 -2.006179,2.006179 -1.069962,0 -2.006178,-0.936217 -2.006178,-2.006179 0,-1.069961 0.936216,-2.006178 2.006178,-2.006178 m -10.699618,0 c 1.069962,0 2.006179,0.936217 2.006179,2.006178 0,1.069962 -0.936217,2.006179 -2.006179,2.006179 -1.069961,0 -2.006178,-0.936217 -2.006178,-2.006179 0,-1.069961 0.936217,-2.006178 2.006178,-2.006178"
     id="path6" />
</svg>
