<?xml version="1.0" encoding="UTF-8" standalone="no"?>
<!-- Created with Inkscape (http://www.inkscape.org/) -->

<svg
   xmlns:dc="http://purl.org/dc/elements/1.1/"
   xmlns:cc="http://creativecommons.org/ns#"
   xmlns:rdf="http://www.w3.org/1999/02/22-rdf-syntax-ns#"
   xmlns:svg="http://www.w3.org/2000/svg"
   xmlns="http://www.w3.org/2000/svg"
   xmlns:sodipodi="http://sodipodi.sourceforge.net/DTD/sodipodi-0.dtd"
   xmlns:inkscape="http://www.inkscape.org/namespaces/inkscape"
   width="300mm"
   height="70mm"
   viewBox="0 0 300 70"
   version="1.1"
   id="svg30"
   inkscape:version="0.92.4 5da689c313, 2019-01-14"
   sodipodi:docname="rs-232-2.svg">
  <defs
     id="defs24" />
  <sodipodi:namedview
     id="base"
     pagecolor="#ffffff"
     bordercolor="#666666"
     borderopacity="1.0"
     inkscape:pageopacity="0.0"
     inkscape:pageshadow="2"
     inkscape:zoom="0.24748737"
     inkscape:cx="715.50846"
     inkscape:cy="657.79675"
     inkscape:document-units="mm"
     inkscape:current-layer="layer1"
     showgrid="false"
     inkscape:window-width="1366"
     inkscape:window-height="715"
     inkscape:window-x="0"
     inkscape:window-y="0"
     inkscape:window-maximized="1" />
  <metadata
     id="metadata27">
    <rdf:RDF>
      <cc:Work
         rdf:about="">
        <dc:format>image/svg+xml</dc:format>
        <dc:type
           rdf:resource="http://purl.org/dc/dcmitype/StillImage" />
        <dc:title></dc:title>
      </cc:Work>
    </rdf:RDF>
  </metadata>
  <g
     inkscape:label="Layer 1"
     inkscape:groupmode="layer"
     id="layer1"
     style="display:inline"
     transform="translate(0,-227)">
    <g
       transform="matrix(4.7029719,0,0,4.7029719,-0.49509986,111.472)"
       aria-label="RS-232"
       style="font-style:normal;font-weight:normal;font-size:3.64636183px;line-height:1.25;font-family:sans-serif;letter-spacing:0px;word-spacing:0px;fill:#000000;fill-opacity:1;stroke:none;stroke-width:0.09115904"
       id="text121">
      <path
         id="path152"
         style="font-size:17.50253677px;stroke-width:0.09115904"
         d="m 55.73696,36.918315 h 6.025043 v 1.452847 h -8.10176 v -1.452847 q 0.982809,-1.016993 2.674949,-2.726225 1.700685,-1.717778 2.13654,-2.213456 0.828977,-0.931531 1.153731,-1.572493 0.333301,-0.649508 0.333301,-1.273378 0,-1.016993 -0.717878,-1.657955 -0.709331,-0.640962 -1.854517,-0.640962 -0.811885,0 -1.717778,0.282023 -0.897347,0.282023 -1.922886,0.854616 v -1.743417 q 1.042631,-0.418762 1.948524,-0.632416 0.905894,-0.213654 1.657956,-0.213654 1.982709,0 3.162079,0.991355 1.17937,0.991355 1.17937,2.64931 0,0.786247 -0.299115,1.495578 -0.29057,0.700785 -1.06827,1.657955 -0.213655,0.247839 -1.35884,1.435755 -1.145186,1.17937 -3.230449,3.307364 z m -7.392428,-5.426812 q 1.239193,0.264931 1.931432,1.102455 0.700785,0.837524 0.700785,2.068171 0,1.888701 -1.299016,2.922787 -1.299017,1.034085 -3.691942,1.034085 -0.803339,0 -1.657955,-0.162377 -0.84607,-0.153831 -1.751963,-0.470039 v -1.666501 q 0.717878,0.418762 1.572494,0.632416 0.854616,0.213654 1.786148,0.213654 1.62377,0 2.46984,-0.640962 0.854616,-0.640962 0.854616,-1.863063 0,-1.128093 -0.794793,-1.760509 -0.786247,-0.640962 -2.196363,-0.640962 h -1.487032 v -1.418663 h 1.555401 q 1.273378,0 1.948525,-0.504223 0.675146,-0.51277 0.675146,-1.46994 0,-0.982809 -0.700785,-1.504124 -0.692239,-0.529862 -1.991255,-0.529862 -0.709332,0 -1.521217,0.153831 -0.811885,0.15383 -1.786147,0.478585 v -1.538309 q 0.982808,-0.273477 1.837424,-0.410216 0.863162,-0.136739 1.623771,-0.136739 1.965617,0 3.110802,0.897347 1.145186,0.888801 1.145186,2.410018 0,1.059723 -0.606778,1.794693 -0.606777,0.726424 -1.726324,1.008447 z m -14.878865,5.426812 h 6.025043 v 1.452847 h -8.10176 v -1.452847 q 0.982808,-1.016993 2.674948,-2.726225 1.700686,-1.717778 2.13654,-2.213456 0.828978,-0.931531 1.153732,-1.572493 0.3333,-0.649508 0.3333,-1.273378 0,-1.016993 -0.717878,-1.657955 -0.709331,-0.640962 -1.854516,-0.640962 -0.811886,0 -1.717779,0.282023 -0.897346,0.282023 -1.922886,0.854616 v -1.743417 q 1.042632,-0.418762 1.948525,-0.632416 0.905893,-0.213654 1.657955,-0.213654 1.982709,0 3.162079,0.991355 1.179371,0.991355 1.179371,2.64931 0,0.786247 -0.299116,1.495578 -0.29057,0.700785 -1.06827,1.657955 -0.213654,0.247839 -1.35884,1.435755 -1.145185,1.17937 -3.230448,3.307364 z m -8.819638,-4.042334 h 4.60638 v 1.401571 h -4.60638 z M 22.047996,26.030507 V 27.7141 q -0.982808,-0.470039 -1.854516,-0.700785 -0.871709,-0.230746 -1.683594,-0.230746 -1.410116,0 -2.179271,0.546954 -0.760608,0.546954 -0.760608,1.555401 0,0.84607 0.504223,1.281924 0.51277,0.427308 1.931433,0.692239 l 1.042631,0.213654 q 1.931432,0.367485 2.845872,1.299017 0.922985,0.922985 0.922985,2.478386 0,1.854517 -1.24774,2.811687 -1.239193,0.95717 -3.640664,0.95717 -0.905893,0 -1.931432,-0.205108 -1.016993,-0.205108 -2.110902,-0.606777 v -1.777602 q 1.051178,0.589686 2.059625,0.888801 1.008447,0.299116 1.982709,0.299116 1.478486,0 2.281825,-0.581139 0.803339,-0.581139 0.803339,-1.657955 0,-0.940078 -0.581139,-1.46994 -0.572593,-0.529862 -1.888701,-0.794793 l -1.051178,-0.205108 q -1.931432,-0.384577 -2.794595,-1.205008 -0.863162,-0.820432 -0.863162,-2.281825 0,-1.69214 1.187917,-2.666402 1.196462,-0.974263 3.290271,-0.974263 0.897347,0 1.828879,0.162377 0.931531,0.162378 1.905793,0.487132 z M 8.2886782,32.38885 q 0.5555005,0.188016 1.0768163,0.803339 0.5298619,0.615324 1.0597235,1.69214 l 1.751963,3.486833 H 10.322664 L 8.6903478,35.097983 Q 8.0579319,33.816059 7.4597007,33.397297 6.8700156,32.978535 5.8444763,32.978535 H 3.964321 v 5.392627 H 2.2379966 V 25.611745 h 3.8970492 q 2.1878171,0 3.2646333,0.914439 1.0768159,0.914439 1.0768159,2.76041 0,1.205008 -0.5640463,1.999801 -0.5555004,0.794793 -1.6237705,1.102455 z M 3.964321,27.030407 v 4.529465 h 2.1707248 q 1.2477394,0 1.8801553,-0.572592 0.640962,-0.581139 0.640962,-1.700686 0,-1.119547 -0.640962,-1.683594 -0.6324159,-0.572593 -1.8801553,-0.572593 z"
         inkscape:connector-curvature="0" />
    </g>
  </g>
</svg>
