<?xml version="1.0" encoding="UTF-8" standalone="no"?>
<svg
   xmlns:dc="http://purl.org/dc/elements/1.1/"
   xmlns:cc="http://creativecommons.org/ns#"
   xmlns:rdf="http://www.w3.org/1999/02/22-rdf-syntax-ns#"
   xmlns:svg="http://www.w3.org/2000/svg"
   xmlns="http://www.w3.org/2000/svg"
   xmlns:sodipodi="http://sodipodi.sourceforge.net/DTD/sodipodi-0.dtd"
   xmlns:inkscape="http://www.inkscape.org/namespaces/inkscape"
   height="384pt"
   viewBox="0 -1 384.50072 384"
   width="384pt"
   version="1.1"
   id="svg6"
   sodipodi:docname="rs-232.svg"
   inkscape:version="0.92.4 5da689c313, 2019-01-14"
   style="enable-background:new">
  <metadata
     id="metadata12">
    <rdf:RDF>
      <cc:Work
         rdf:about="">
        <dc:format>image/svg+xml</dc:format>
        <dc:type
           rdf:resource="http://purl.org/dc/dcmitype/StillImage" />
        <dc:title />
      </cc:Work>
    </rdf:RDF>
  </metadata>
  <defs
     id="defs10" />
  <sodipodi:namedview
     pagecolor="#ffffff"
     bordercolor="#666666"
     borderopacity="1"
     objecttolerance="10"
     gridtolerance="10"
     guidetolerance="10"
     inkscape:pageopacity="0"
     inkscape:pageshadow="2"
     inkscape:window-width="1366"
     inkscape:window-height="715"
     id="namedview8"
     showgrid="false"
     inkscape:zoom="0.62422893"
     inkscape:cx="54.896317"
     inkscape:cy="276.34611"
     inkscape:window-x="0"
     inkscape:window-y="0"
     inkscape:window-maximized="1"
     inkscape:current-layer="svg6"
     inkscape:snap-text-baseline="false" />
  <g
     aria-label="R"
     style="font-style:normal;font-weight:normal;font-size:421.43212891px;line-height:1.25;font-family:sans-serif;letter-spacing:0px;word-spacing:0px;fill:#000000;fill-opacity:1;stroke:none;stroke-width:2.19495916"
     id="text30"
     transform="matrix(1.1177986,0,0,1.1177986,-95.921471,-19.472513)">
    <path
       id="path9"
       style="font-size:421.43212891px;stroke-width:2.19495916"
       d="m 231.50324,203.11469 q 13.37553,4.5271 25.92796,19.34308 12.7582,14.81597 25.51639,40.74392 l 42.18437,83.95718 H 280.47827 L 241.17478,268.34613 Q 225.94725,237.47952 211.54283,227.39642 197.34419,217.31333 172.6509,217.31333 H 127.37987 V 347.15887 H 85.812839 V 39.933206 h 93.834501 q 52.67901,0 78.60697,22.018183 25.92795,22.018182 25.92795,66.466101 0,29.01462 -13.58131,48.15191 -13.37553,19.1373 -39.09771,26.54529 z M 127.37987,74.092256 V 183.15428 h 52.26747 q 30.0435,0 45.27103,-13.78708 15.4333,-13.99287 15.4333,-40.94971 0,-26.95684 -15.4333,-40.538148 -15.22753,-13.787086 -45.27103,-13.787086 z"
       inkscape:connector-curvature="0" />
  </g>
  <g
     aria-label="232"
     style="font-style:normal;font-weight:normal;font-size:21.4233532px;line-height:1.25;font-family:sans-serif;letter-spacing:0px;word-spacing:0px;fill:#000000;fill-opacity:1;stroke:none;stroke-width:0.53558379"
     id="text15"
     transform="translate(-99.814905,124.82472)">
    <path
       id="path25"
       style="font-size:102.83209229px;stroke-width:0.90387791"
       d="m 369.91859,157.01502 v 59.74068 h -14.40556 v -80.33215 h 14.40556 q 10.08387,9.74493 27.03159,26.52317 17.03245,16.86296 21.94728,21.18463 9.2365,8.21965 15.59189,11.43972 6.44014,3.3048 12.62605,3.3048 10.08389,0 16.43928,-7.11805 6.35538,-7.03329 6.35538,-18.38826 0,-8.05015 -2.79636,-17.03245 -2.79637,-8.89754 -8.47386,-19.06617 h 17.28666 q 4.1522,10.3381 6.27067,19.32038 2.11845,8.9823 2.11845,16.43929 0,19.65934 -9.82966,31.35326 -9.82968,11.69392 -26.26896,11.69392 -7.79595,0 -14.82925,-2.96585 -6.94856,-2.8811 -16.43928,-10.59231 -2.45742,-2.11847 -14.23606,-13.47344 -11.69393,-11.35496 -32.79382,-32.03117 z m 53.80897,-73.298855 q -2.62689,12.28709 -10.93128,19.150915 -8.30437,6.94856 -20.50673,6.94856 -18.72721,0 -28.98058,-12.880265 -10.25336,-12.88026 -10.25336,-36.607056 0,-7.96542 1.61003,-16.439279 1.5253,-8.389121 4.66061,-17.371401 h 16.52402 q -4.15218,7.118034 -6.27065,15.591893 -2.11845,8.473841 -2.11845,17.710349 0,16.100334 6.35538,24.489464 6.35539,8.47384 18.47301,8.47384 11.18549,0 17.45615,-7.88069 6.35539,-7.79594 6.35539,-21.777801 V 48.38018 h 14.06659 v 15.422425 q 0,12.62603 4.99958,19.32038 5.08432,6.69435 14.57504,6.69435 9.74492,0 14.91398,-6.94856 5.25378,-6.86382 5.25378,-19.744081 0,-7.033304 -1.52528,-15.083478 -1.52529,-8.050157 -4.74536,-17.710349 h 15.25294 q 2.71163,9.744929 4.06746,18.218787 1.35579,8.558595 1.35579,16.100341 0,19.48985 -8.89753,30.84483 -8.8128,11.354975 -23.89628,11.354975 -10.50757,0 -17.79508,-6.01644 -7.20279,-6.016445 -9.99917,-17.117195 z M 369.91859,-63.813665 V -4.0729875 H 355.51303 V -84.405136 h 14.40556 q 10.08387,9.744929 27.03159,26.523172 17.03245,16.862963 21.94728,21.184629 9.2365,8.219648 15.59189,11.4397 6.44014,3.304807 12.62605,3.304807 10.08389,0 16.43928,-7.118034 6.35538,-7.033297 6.35538,-18.388261 0,-8.050174 -2.79636,-17.032454 -2.79637,-8.897543 -8.47386,-19.066173 h 17.28666 q 4.1522,10.338104 6.27067,19.320383 2.11845,8.982297 2.11845,16.439279 0,19.659349 -9.82966,31.353276 -9.82968,11.6939125 -26.26896,11.6939125 -7.79595,0 -14.82925,-2.965842 -6.94856,-2.8811225 -16.43928,-10.5923325 -2.45742,-2.118456 -14.23606,-13.473419 -11.69393,-11.354964 -32.79382,-32.031172 z"
       inkscape:connector-curvature="0" />
  </g>
</svg>
