<?xml version="1.0" encoding="UTF-8" standalone="no"?>
<svg
   xmlns:dc="http://purl.org/dc/elements/1.1/"
   xmlns:cc="http://creativecommons.org/ns#"
   xmlns:rdf="http://www.w3.org/1999/02/22-rdf-syntax-ns#"
   xmlns:svg="http://www.w3.org/2000/svg"
   xmlns="http://www.w3.org/2000/svg"
   xmlns:sodipodi="http://sodipodi.sourceforge.net/DTD/sodipodi-0.dtd"
   xmlns:inkscape="http://www.inkscape.org/namespaces/inkscape"
   height="384pt"
   viewBox="0 -1 384.50072 384"
   width="384pt"
   version="1.1"
   id="svg6"
   sodipodi:docname="RTS.svg"
   inkscape:version="0.92.4 5da689c313, 2019-01-14">
  <metadata
     id="metadata12">
    <rdf:RDF>
      <cc:Work
         rdf:about="">
        <dc:format>image/svg+xml</dc:format>
        <dc:type
           rdf:resource="http://purl.org/dc/dcmitype/StillImage" />
      </cc:Work>
    </rdf:RDF>
  </metadata>
  <defs
     id="defs10" />
  <sodipodi:namedview
     pagecolor="#ffffff"
     bordercolor="#666666"
     borderopacity="1"
     objecttolerance="10"
     gridtolerance="10"
     guidetolerance="10"
     inkscape:pageopacity="0"
     inkscape:pageshadow="2"
     inkscape:window-width="1366"
     inkscape:window-height="715"
     id="namedview8"
     showgrid="false"
     inkscape:zoom="0.44139651"
     inkscape:cx="-222.02259"
     inkscape:cy="266.67311"
     inkscape:window-x="0"
     inkscape:window-y="0"
     inkscape:window-maximized="1"
     inkscape:current-layer="svg6"
     inkscape:snap-page="true" />
  <path
     d="m 374.39795,224.58149 c -5.5802,0 -10.10276,4.77335 -10.10276,10.66299 v 94.67568 c -0.0197,17.66057 -13.57558,31.9723 -30.30827,31.98896 H 50.51379 C 33.781097,361.89249 20.225248,347.58073 20.205516,329.92016 V 52.053499 c 0.01973,-17.65641 13.575581,-31.96814 30.308274,-31.988966 h 89.70144 c 5.5802,0 10.10276,-4.773354 10.10276,-10.662989 0,-5.88547 -4.52256,-10.662989 -10.10276,-10.662989 H 50.51379 C 22.6286,-1.228123 0.03157112,22.621983 0,52.053499 V 329.92432 c 0.03157112,29.43152 22.6286,53.28162 50.51379,53.31494 h 283.47313 c 27.88519,-0.0333 50.48222,-23.88342 50.51379,-53.31494 v -94.67984 c 0,-5.88964 -4.52257,-10.66299 -10.10276,-10.66299 z m 0,0"
     id="path2"
     inkscape:connector-curvature="0"
     style="stroke-width:1.03790951" />
  <g
     aria-label="RTS"
     style="font-style:normal;font-weight:normal;font-size:165.40678406px;line-height:1.25;font-family:sans-serif;letter-spacing:0px;word-spacing:0px;fill:#000000;fill-opacity:1;stroke:none;stroke-width:0.86149353"
     id="text3868"
     transform="matrix(1.0102758,0,0,1.0662989,0,-43.030372)">
    <path
       d="m 111.74182,197.29416 q 5.24973,1.77683 10.17639,7.59191 5.00743,5.81508 10.01487,15.99148 l 16.55683,32.95213 H 130.9639 l -15.42613,-30.93301 q -5.97661,-12.11475 -11.63016,-16.07224 -5.572787,-3.95748 -15.264591,-3.95748 H 70.874712 v 50.96273 H 54.560176 V 133.24749 H 91.38903 q 20.67585,0 30.85224,8.64186 10.1764,8.64186 10.1764,26.0871 0,11.38787 -5.3305,18.89902 -5.24972,7.51115 -15.34535,10.41869 z M 70.874712,146.65448 v 42.80547 H 91.38903 q 11.79169,0 17.76831,-5.41126 6.05737,-5.49202 6.05737,-16.07224 0,-10.58022 -6.05737,-15.91071 -5.97662,-5.41126 -17.76831,-5.41126 z"
       style="font-size:165.40678406px;stroke-width:0.86149353"
       id="path9"
       inkscape:connector-curvature="0" />
    <path
       d="m 140.73646,133.24749 h 102.00623 v 13.73006 h -42.80546 v 106.85213 h -16.3953 V 146.97755 h -42.80547 z"
       style="font-size:165.40678406px;stroke-width:0.86149353"
       id="path11"
       inkscape:connector-curvature="0" />
    <path
       d="m 330.77658,137.20498 v 15.91071 q -9.28798,-4.44208 -17.52601,-6.62274 -8.23803,-2.18065 -15.91071,-2.18065 -13.32623,0 -20.59509,5.16896 -7.18808,5.16896 -7.18808,14.69924 0,7.99573 4.76513,12.11475 4.84591,4.03825 18.2529,6.54197 l 9.85333,2.01912 q 18.2529,3.4729 26.89476,12.27629 8.72262,8.72262 8.72262,23.42186 0,17.52601 -11.79169,26.57169 -11.71093,9.04569 -34.4059,9.04569 -8.5611,0 -18.2529,-1.93836 -9.61104,-1.93836 -19.94896,-5.73432 v -16.79913 q 9.93409,5.57279 19.46437,8.39957 9.53027,2.82677 18.73749,2.82677 13.97235,0 21.56426,-5.49202 7.59191,-5.49202 7.59191,-15.66842 0,-8.88415 -5.49202,-13.89158 -5.41126,-5.00743 -17.84907,-7.51115 l -9.9341,-1.93836 q -18.2529,-3.63443 -26.41017,-11.38787 -8.15726,-7.75344 -8.15726,-21.56426 0,-15.99148 11.22633,-25.19869 11.30711,-9.20722 31.09454,-9.20722 8.48033,0 17.28372,1.53454 8.80339,1.53454 18.0106,4.60361 z"
       style="font-size:165.40678406px;stroke-width:0.86149353"
       id="path13"
       inkscape:connector-curvature="0" />
  </g>
</svg>
