<?xml version="1.0" encoding="UTF-8" standalone="no"?>
<svg
   xmlns:dc="http://purl.org/dc/elements/1.1/"
   xmlns:cc="http://creativecommons.org/ns#"
   xmlns:rdf="http://www.w3.org/1999/02/22-rdf-syntax-ns#"
   xmlns:svg="http://www.w3.org/2000/svg"
   xmlns="http://www.w3.org/2000/svg"
   xmlns:sodipodi="http://sodipodi.sourceforge.net/DTD/sodipodi-0.dtd"
   xmlns:inkscape="http://www.inkscape.org/namespaces/inkscape"
   viewBox="0 0 64 64"
   width="512"
   height="512"
   version="1.1"
   id="svg17"
   sodipodi:docname="serialport.svg"
   inkscape:version="0.92.4 5da689c313, 2019-01-14">
  <metadata
     id="metadata23">
    <rdf:RDF>
      <cc:Work
         rdf:about="">
        <dc:format>image/svg+xml</dc:format>
        <dc:type
           rdf:resource="http://purl.org/dc/dcmitype/StillImage" />
        <dc:title></dc:title>
      </cc:Work>
    </rdf:RDF>
  </metadata>
  <defs
     id="defs21">
    <linearGradient
       id="SVGID_1_"
       gradientUnits="userSpaceOnUse"
       x1="12.692535"
       y1="8.5"
       x2="12.692535"
       y2="19">
      <stop
         offset="0"
         style="stop-color:#010101;stop-opacity:0.1"
         id="stop46" />
      <stop
         offset="1"
         style="stop-color:#010101;stop-opacity:0"
         id="stop48" />
    </linearGradient>
    <linearGradient
       id="SVGID_2_"
       gradientUnits="userSpaceOnUse"
       x1="-0.32459289"
       y1="6.2529478"
       x2="24.324593"
       y2="17.747051">
      <stop
         offset="0"
         style="stop-color:#FFFFFF;stop-opacity:0.2"
         id="stop53" />
      <stop
         offset="1"
         style="stop-color:#FFFFFF;stop-opacity:0"
         id="stop55" />
    </linearGradient>
  </defs>
  <sodipodi:namedview
     pagecolor="#ffffff"
     bordercolor="#666666"
     borderopacity="1"
     objecttolerance="10"
     gridtolerance="10"
     guidetolerance="10"
     inkscape:pageopacity="0"
     inkscape:pageshadow="2"
     inkscape:window-width="1366"
     inkscape:window-height="715"
     id="namedview19"
     showgrid="false"
     inkscape:zoom="0.70710678"
     inkscape:cx="97.280007"
     inkscape:cy="271.97265"
     inkscape:window-x="0"
     inkscape:window-y="0"
     inkscape:window-maximized="1"
     inkscape:current-layer="svg17" />
  <g
     transform="matrix(2.6146051,0,0,2.6146051,0.6247388,0.6247388)"
     id="g60">
    <path
       d="M 22,4 H 2 C 0.8974609,4 0,4.8969727 0,6 v 12 c 0,1.103027 0.8974609,2 2,2 h 20 c 1.102539,0 2,-0.896973 2,-2 V 6 C 24,4.8969727 23.102539,4 22,4 Z"
       id="path2"
       inkscape:connector-curvature="0"
       style="fill:#303c42" />
    <path
       d="m 23,18 c 0,0.551269 -0.448242,1 -1,1 H 2 C 1.4482422,19 1,18.551269 1,18 V 6 C 1,5.4487305 1.4482422,5 2,5 h 20 c 0.551758,0 1,0.4487305 1,1 z"
       id="path4"
       inkscape:connector-curvature="0"
       style="fill:#f3f3f3" />
    <path
       d="M 17.040039,7.5 H 6.9599609 C 5.6035156,7.5 4.5,8.6572266 4.5,10.07959 c 0,0.168457 0.015625,0.336426 0.046875,0.500976 l 0.7236328,3.840332 C 5.4980469,15.625488 6.5126953,16.5 7.6835938,16.5 h 8.6328122 c 1.170899,0 2.185547,-0.874512 2.413086,-2.079102 l 0.723633,-3.840332 C 19.484375,10.416016 19.5,10.248047 19.5,10.07959 19.5,8.6572266 18.396484,7.5 17.040039,7.5 Z"
       id="path6"
       inkscape:connector-curvature="0"
       style="fill:#303c42" />
    <path
       d="M 18.470703,10.39502 17.74707,14.235352 C 17.608398,14.968262 17.006836,15.5 16.316406,15.5 H 7.6835938 C 6.9931641,15.5 6.3916016,14.968262 6.2529297,14.235352 L 5.5292969,10.39502 C 5.5097656,10.291016 5.5,10.185547 5.5,10.07959 5.5,9.2084961 6.1552734,8.5 6.9599609,8.5 H 17.040039 C 17.844727,8.5 18.5,9.2084961 18.5,10.07959 c 0,0.105957 -0.0098,0.211426 -0.0293,0.31543 z"
       id="path8"
       inkscape:connector-curvature="0"
       style="fill:#1b87c9" />
    <path
       d="M 17.411865,8.5584106 C 17.465332,8.7224121 17.5,8.8960571 17.5,9.0795898 c 0,0.105957 -0.0098,0.2114258 -0.0293,0.3154297 L 16.74707,13.235352 C 16.608398,13.968262 16.006836,14.5 15.316406,14.5 H 6.6835938 C 6.5584717,14.5 6.4415284,14.464417 6.3244629,14.431458 6.5274048,15.055481 7.0599365,15.5 7.6835938,15.5 h 8.6328122 c 0.69043,0 1.291992,-0.531738 1.430664,-1.264648 L 18.470703,10.39502 C 18.490234,10.291016 18.5,10.185547 18.5,10.07959 18.5,9.3483887 18.036072,8.7376099 17.411865,8.5584106 Z"
       id="path10"
       inkscape:connector-curvature="0"
       style="opacity:0.1;fill:#010101" />
    <circle
       cx="3"
       cy="12"
       r="1"
       id="circle12"
       style="fill:#303c42" />
    <circle
       cx="21"
       cy="12"
       r="1"
       id="circle14"
       style="fill:#303c42" />
    <circle
       cx="7.5"
       cy="10"
       r="0.5"
       id="circle16"
       style="fill:#303c42" />
    <circle
       cx="9.5"
       cy="10"
       r="0.5"
       id="circle18"
       style="fill:#303c42" />
    <circle
       cx="11.5"
       cy="10"
       r="0.5"
       id="circle20"
       style="fill:#303c42" />
    <circle
       cx="13.5"
       cy="10"
       r="0.5"
       id="circle22"
       style="fill:#303c42" />
    <circle
       cx="15.5"
       cy="10"
       r="0.5"
       id="circle24"
       style="fill:#303c42" />
    <circle
       cx="7.5"
       cy="14"
       r="0.5"
       id="circle26"
       style="fill:#303c42" />
    <circle
       cx="9.5"
       cy="14"
       r="0.5"
       id="circle28"
       style="fill:#303c42" />
    <circle
       cx="11.5"
       cy="14"
       r="0.5"
       id="circle30"
       style="fill:#303c42" />
    <circle
       cx="13.5"
       cy="14"
       r="0.5"
       id="circle32"
       style="fill:#303c42" />
    <circle
       cx="15.5"
       cy="14"
       r="0.5"
       id="circle34"
       style="fill:#303c42" />
    <circle
       cx="8.5"
       cy="12"
       r="0.5"
       id="circle36"
       style="fill:#303c42" />
    <circle
       cx="10.5"
       cy="12"
       r="0.5"
       id="circle38"
       style="fill:#303c42" />
    <circle
       cx="12.5"
       cy="12"
       r="0.5"
       id="circle40"
       style="fill:#303c42" />
    <circle
       cx="14.5"
       cy="12"
       r="0.5"
       id="circle42"
       style="fill:#303c42" />
    <circle
       cx="16.5"
       cy="12"
       r="0.5"
       id="circle44"
       style="fill:#303c42" />
    <linearGradient
       id="linearGradient139"
       gradientUnits="userSpaceOnUse"
       x1="12.692535"
       y1="8.5"
       x2="12.692535"
       y2="19">
      <stop
         offset="0"
         style="stop-color:#010101;stop-opacity:0.1"
         id="stop135" />
      <stop
         offset="1"
         style="stop-color:#010101;stop-opacity:0"
         id="stop137" />
    </linearGradient>
    <path
       d="m 18.980102,8.5 -0.0066,0.00391 C 19.298401,8.9411621 19.5,9.4836426 19.5,10.07959 c 0,0.168457 -0.01563,0.336426 -0.04687,0.500976 l -0.723633,3.840332 C 18.501953,15.625488 17.487305,16.5 16.316406,16.5 H 7.6835938 C 6.5126954,16.5 5.4980469,15.625488 5.2705079,14.420898 L 4.9187623,12.55426 3.864502,11.5 3.853027,11.5099 C 3.9381104,11.656982 4,11.818298 4,12 4,12.55127 3.5517578,13 3,13 2.7682495,13 2.5644531,12.908081 2.3947754,12.775391 l -0.0097,0.0084 L 8.6012573,19 H 22 c 0.551758,0 1,-0.448731 1,-1 V 12.519897 Z M 21,13 c -0.551758,0 -1,-0.44873 -1,-1 0,-0.551269 0.448242,-1 1,-1 0.551758,0 1,0.448731 1,1 0,0.55127 -0.448242,1 -1,1 z"
       id="path51"
       inkscape:connector-curvature="0"
       style="fill:url(#SVGID_1_)" />
    <linearGradient
       id="linearGradient146"
       gradientUnits="userSpaceOnUse"
       x1="-0.32459289"
       y1="6.2529478"
       x2="24.324593"
       y2="17.747051">
      <stop
         offset="0"
         style="stop-color:#FFFFFF;stop-opacity:0.2"
         id="stop142" />
      <stop
         offset="1"
         style="stop-color:#FFFFFF;stop-opacity:0"
         id="stop144" />
    </linearGradient>
    <path
       d="M 22,4 H 2 C 0.8974609,4 0,4.8969727 0,6 v 12 c 0,1.103027 0.8974609,2 2,2 h 20 c 1.102539,0 2,-0.896973 2,-2 V 6 C 24,4.8969727 23.102539,4 22,4 Z"
       id="path58"
       inkscape:connector-curvature="0"
       style="fill:url(#SVGID_2_)" />
  </g>
  <g
     transform="matrix(2.6146051,0,0,2.6146051,0.6247388,0.6247388)"
     id="g62" />
  <g
     transform="matrix(2.6146051,0,0,2.6146051,0.6247388,0.6247388)"
     id="g64" />
  <g
     transform="matrix(2.6146051,0,0,2.6146051,0.6247388,0.6247388)"
     id="g66" />
  <g
     transform="matrix(2.6146051,0,0,2.6146051,0.6247388,0.6247388)"
     id="g68" />
  <g
     transform="matrix(2.6146051,0,0,2.6146051,0.6247388,0.6247388)"
     id="g70" />
  <g
     transform="matrix(2.6146051,0,0,2.6146051,0.6247388,0.6247388)"
     id="g72" />
  <g
     transform="matrix(2.6146051,0,0,2.6146051,0.6247388,0.6247388)"
     id="g74" />
  <g
     transform="matrix(2.6146051,0,0,2.6146051,0.6247388,0.6247388)"
     id="g76" />
  <g
     transform="matrix(2.6146051,0,0,2.6146051,0.6247388,0.6247388)"
     id="g78" />
  <g
     transform="matrix(2.6146051,0,0,2.6146051,0.6247388,0.6247388)"
     id="g80" />
  <g
     transform="matrix(2.6146051,0,0,2.6146051,0.6247388,0.6247388)"
     id="g82" />
  <g
     transform="matrix(2.6146051,0,0,2.6146051,0.6247388,0.6247388)"
     id="g84" />
  <g
     transform="matrix(2.6146051,0,0,2.6146051,0.6247388,0.6247388)"
     id="g86" />
  <g
     transform="matrix(2.6146051,0,0,2.6146051,0.6247388,0.6247388)"
     id="g88" />
  <g
     transform="matrix(2.6146051,0,0,2.6146051,0.6247388,0.6247388)"
     id="g90" />
</svg>
