<?xml version="1.0" encoding="UTF-8" standalone="no"?>
<svg
   xmlns:dc="http://purl.org/dc/elements/1.1/"
   xmlns:cc="http://creativecommons.org/ns#"
   xmlns:rdf="http://www.w3.org/1999/02/22-rdf-syntax-ns#"
   xmlns:svg="http://www.w3.org/2000/svg"
   xmlns="http://www.w3.org/2000/svg"
   xmlns:sodipodi="http://sodipodi.sourceforge.net/DTD/sodipodi-0.dtd"
   xmlns:inkscape="http://www.inkscape.org/namespaces/inkscape"
   viewBox="0 0 64 64"
   width="512"
   height="512"
   version="1.1"
   id="svg17"
   sodipodi:docname="spreadsheet_add.svg"
   inkscape:version="0.92.4 5da689c313, 2019-01-14">
  <metadata
     id="metadata23">
    <rdf:RDF>
      <cc:Work
         rdf:about="">
        <dc:format>image/svg+xml</dc:format>
        <dc:type
           rdf:resource="http://purl.org/dc/dcmitype/StillImage" />
        <dc:title></dc:title>
      </cc:Work>
    </rdf:RDF>
  </metadata>
  <defs
     id="defs21" />
  <sodipodi:namedview
     pagecolor="#ffffff"
     bordercolor="#666666"
     borderopacity="1"
     objecttolerance="10"
     gridtolerance="10"
     guidetolerance="10"
     inkscape:pageopacity="0"
     inkscape:pageshadow="2"
     inkscape:window-width="1366"
     inkscape:window-height="715"
     id="namedview19"
     showgrid="false"
     inkscape:zoom="0.70710678"
     inkscape:cx="216.30182"
     inkscape:cy="278.5412"
     inkscape:window-x="0"
     inkscape:window-y="0"
     inkscape:window-maximized="1"
     inkscape:current-layer="svg17" />
  <path
     inkscape:connector-curvature="0"
     style="fill:currentColor;fill-opacity:1;stroke:none;stroke-width:3.90625"
     d="m 0.75000005,0.75 v 62.5 H 35.906249 V 59.343751 H 28.093751 V 51.53125 h 7.812498 V 47.625 h -7.812498 v -7.8125 h 7.812498 V 35.906249 H 28.093751 V 28.09375 h 7.812498 v 7.812499 H 39.8125 V 28.09375 h 7.812501 v 7.812499 H 51.53125 V 28.09375 h 7.8125 v 7.812499 H 63.25 V 0.75 Z M 4.6562497,4.6562501 H 12.46875 16.375 24.1875 V 24.1875 H 4.6562497 V 16.374999 12.46875 Z m 23.4375013,0 h 7.812498 V 12.46875 h -7.812498 z m 11.718749,0 h 7.812501 V 12.46875 H 39.8125 Z m 11.71875,0 h 7.8125 V 12.46875 h -7.8125 z M 28.093751,16.374999 h 7.812498 V 24.1875 h -7.812498 z m 11.718749,0 h 7.812501 V 24.1875 H 39.8125 Z m 11.71875,0 h 7.8125 V 24.1875 h -7.8125 z M 4.6562497,28.09375 H 12.46875 v 7.812499 H 4.6562497 Z m 11.7187503,0 h 7.8125 v 7.812499 H 16.375 Z M 4.6562497,39.8125 H 12.46875 V 47.625 H 4.6562497 Z m 11.7187503,0 h 7.8125 V 47.625 H 16.375 Z m 35.15625,3.90625 v 7.8125 h -7.8125 v 3.906249 h 7.8125 V 63.25 h 3.906249 V 55.437499 H 63.25 V 51.53125 h -7.812501 v -7.8125 z M 4.6562496,51.53125 H 12.46875 v 7.812501 H 4.6562497 Z m 11.7187504,0 h 7.8125 v 7.812501 H 16.375 Z"
     class="ColorScheme-Text"
     id="path4" />
  <path
     inkscape:connector-curvature="0"
     style="fill:currentColor;fill-opacity:1;stroke:none;stroke-width:3.90625"
     d="M 4.6562497,4.6562501 V 16.374999 24.1875 H 24.1875 V 16.374999 4.6562501 H 16.375 Z"
     class="ColorScheme-Highlight"
     id="path6" />
</svg>
