<?xml version="1.0" encoding="UTF-8" standalone="no"?>
<svg
   xmlns:dc="http://purl.org/dc/elements/1.1/"
   xmlns:cc="http://creativecommons.org/ns#"
   xmlns:rdf="http://www.w3.org/1999/02/22-rdf-syntax-ns#"
   xmlns:svg="http://www.w3.org/2000/svg"
   xmlns="http://www.w3.org/2000/svg"
   xmlns:sodipodi="http://sodipodi.sourceforge.net/DTD/sodipodi-0.dtd"
   xmlns:inkscape="http://www.inkscape.org/namespaces/inkscape"
   style="enable-background:new"
   id="svg6"
   version="1.1"
   width="384pt"
   viewBox="0 -1 384.50072 384"
   height="384pt"
   sodipodi:docname="statusbar.svg"
   inkscape:version="0.92.4 5da689c313, 2019-01-14">
  <sodipodi:namedview
     pagecolor="#ffffff"
     bordercolor="#666666"
     borderopacity="1"
     objecttolerance="10"
     gridtolerance="10"
     guidetolerance="10"
     inkscape:pageopacity="0"
     inkscape:pageshadow="2"
     inkscape:window-width="1366"
     inkscape:window-height="715"
     id="namedview9"
     showgrid="false"
     inkscape:zoom="0.921875"
     inkscape:cx="230.21478"
     inkscape:cy="244.72337"
     inkscape:window-x="0"
     inkscape:window-y="0"
     inkscape:window-maximized="1"
     inkscape:current-layer="svg6" />
  <metadata
     id="metadata12">
    <rdf:RDF>
      <cc:Work
         rdf:about="">
        <dc:format>image/svg+xml</dc:format>
        <dc:type
           rdf:resource="http://purl.org/dc/dcmitype/StillImage" />
        <dc:title></dc:title>
      </cc:Work>
    </rdf:RDF>
  </metadata>
  <defs
     id="defs10" />
  <path
     style="stroke-width:1.03790951"
     id="path2"
     d="m 374.39797,266.64735 c -5.58021,0 -10.10277,4.77336 -10.10277,10.663 v 52.62091 c -0.0198,17.66057 -13.57558,31.9723 -30.30826,31.98896 H 50.513791 C 33.781098,361.90356 20.225249,347.59183 20.205517,329.93126 V 52.064586 C 20.225257,34.408179 33.781098,20.096445 50.513791,20.075618 h 89.701449 c 5.58019,0 10.10275,-4.773353 10.10275,-10.662989 0,-5.88547 -4.52256,-10.662989 -10.10275,-10.662989 H 50.513791 C 22.628601,-1.21704 0.031571,22.633071 0,52.064586 V 329.93543 c 0.03156,29.43151 22.628601,53.28161 50.513791,53.31493 H 333.98694 c 27.88518,-0.0333 50.48221,-23.88342 50.51378,-53.31493 v -52.62508 c 0,-5.88964 -4.52256,-10.663 -10.10275,-10.663 z" />
  <g
     id="text15"
     style="font-style:normal;font-weight:normal;font-size:21.4233532px;line-height:1.25;font-family:sans-serif;letter-spacing:0px;word-spacing:0px;fill:#000000;fill-opacity:1;stroke:none;stroke-width:0.53558379"
     aria-label="232" />
  <path
     inkscape:connector-curvature="0"
     style="stroke-width:1.03790951;enable-background:new"
     id="path2-3"
     d="m 10.102752,115.35264 c 5.58021,0 10.10276,-4.77335 10.10276,-10.663 V 52.068747 c 0.0198,-17.66057 13.57559,-31.9723 30.30826,-31.98896 H 333.98694 c 16.73269,0.0167 30.28854,14.32839 30.30828,31.98896 V 329.93541 c -0.0197,17.65641 -13.57559,31.96815 -30.30828,31.98897 h -89.70145 c -5.58019,0 -10.10275,4.77335 -10.10275,10.66299 0,5.88547 4.52256,10.66299 10.10275,10.66299 h 89.70145 c 27.88519,-0.0333 50.48222,-23.88343 50.51379,-53.31495 V 52.064577 c -0.0316,-29.43151 -22.6286,-53.2816203 -50.51379,-53.3149403 H 50.513772 C 22.628602,-1.2170633 0.03156259,22.633067 -7.41e-6,52.064577 v 52.625063 c 0,5.88965 4.52256001,10.663 10.10275941,10.663 z" />
  <path
     id="path2-3-6"
     style="stroke-width:0.9697144;enable-background:new"
     d="m 117.42147,318.62967 c 0,21.32954 0,0 0,21.32954 h 247.44529 c 0,0 0,0 0,-21.32954 z"
     inkscape:connector-curvature="0"
     sodipodi:nodetypes="ccccc" />
  <path
     id="path2-3-6-7"
     style="stroke-width:0.25677109;enable-background:new"
     d="m 37.692674,318.7893 c 0,21.32954 0,0 0,21.32954 h 17.349373 c 0,0 0,0 0,-21.32954 z"
     inkscape:connector-curvature="0"
     sodipodi:nodetypes="ccccc" />
  <path
     id="path2-3-6-7-5"
     style="stroke-width:0.25677109;enable-background:new"
     d="m 56.544003,318.7893 c 0,21.32954 0,0 0,21.32954 h 17.34938 c 0,0 0,0 0,-21.32954 z"
     inkscape:connector-curvature="0"
     sodipodi:nodetypes="ccccc" />
  <path
     id="path2-3-6-7-5-5"
     style="stroke-width:0.25677109;enable-background:new"
     d="m 75.395339,318.7893 c 0,21.32954 0,0 0,21.32954 H 92.74469 c 0,0 0,0 0,-21.32954 z"
     inkscape:connector-curvature="0"
     sodipodi:nodetypes="ccccc" />
  <path
     id="path2-3-6-7-5-5-6"
     style="stroke-width:0.25677109;enable-background:new"
     d="m 94.246646,318.7893 c 0,21.32954 0,0 0,21.32954 h 17.349394 c 0,0 0,0 0,-21.32954 z"
     inkscape:connector-curvature="0"
     sodipodi:nodetypes="ccccc" />
</svg>
