<?xml version="1.0" encoding="UTF-8" standalone="no"?>
<svg
   xmlns:dc="http://purl.org/dc/elements/1.1/"
   xmlns:cc="http://creativecommons.org/ns#"
   xmlns:rdf="http://www.w3.org/1999/02/22-rdf-syntax-ns#"
   xmlns:svg="http://www.w3.org/2000/svg"
   xmlns="http://www.w3.org/2000/svg"
   xmlns:sodipodi="http://sodipodi.sourceforge.net/DTD/sodipodi-0.dtd"
   xmlns:inkscape="http://www.inkscape.org/namespaces/inkscape"
   height="384pt"
   viewBox="0 -1 384.50072 384"
   width="384pt"
   version="1.1"
   id="svg6"
   sodipodi:docname="tcp.svg"
   inkscape:version="0.92.4 5da689c313, 2019-01-14"
   style="enable-background:new">
  <metadata
     id="metadata12">
    <rdf:RDF>
      <cc:Work
         rdf:about="">
        <dc:format>image/svg+xml</dc:format>
        <dc:type
           rdf:resource="http://purl.org/dc/dcmitype/StillImage" />
        <dc:title></dc:title>
      </cc:Work>
    </rdf:RDF>
  </metadata>
  <defs
     id="defs10" />
  <sodipodi:namedview
     pagecolor="#ffffff"
     bordercolor="#666666"
     borderopacity="1"
     objecttolerance="10"
     gridtolerance="10"
     guidetolerance="10"
     inkscape:pageopacity="0"
     inkscape:pageshadow="2"
     inkscape:window-width="1366"
     inkscape:window-height="715"
     id="namedview8"
     showgrid="false"
     inkscape:zoom="0.62422893"
     inkscape:cx="26.785842"
     inkscape:cy="404.50422"
     inkscape:window-x="0"
     inkscape:window-y="0"
     inkscape:window-maximized="1"
     inkscape:current-layer="svg6"
     inkscape:snap-text-baseline="false" />
  <path
     d="m 374.39797,266.64735 c -5.58021,0 -10.10277,4.77336 -10.10277,10.663 v 52.62091 c -0.0198,17.66057 -13.57558,31.9723 -30.30826,31.98896 H 50.513791 C 33.781098,361.90356 20.225249,347.59183 20.205517,329.93126 V 52.064586 C 20.225257,34.408179 33.781098,20.096445 50.513791,20.075618 h 89.701449 c 5.58019,0 10.10275,-4.773353 10.10275,-10.662989 0,-5.88547 -4.52256,-10.662989 -10.10275,-10.662989 H 50.513791 C 22.628601,-1.21704 0.031571,22.633071 0,52.064586 V 329.93543 c 0.03156,29.43151 22.628601,53.28161 50.513791,53.31493 H 333.98694 c 27.88518,-0.0333 50.48221,-23.88342 50.51378,-53.31493 v -52.62508 c 0,-5.88964 -4.52256,-10.663 -10.10275,-10.663 z"
     id="path2"
     inkscape:connector-curvature="0"
     style="stroke-width:1.03790951"
     sodipodi:nodetypes="ssccccccsssccccccss" />
  <g
     aria-label="232"
     style="font-style:normal;font-weight:normal;font-size:21.4233532px;line-height:1.25;font-family:sans-serif;letter-spacing:0px;word-spacing:0px;fill:#000000;fill-opacity:1;stroke:none;stroke-width:0.53558379"
     id="text15" />
  <g
     aria-label="TCP"
     style="font-style:normal;font-weight:normal;font-size:183.79942322px;line-height:1.25;font-family:sans-serif;letter-spacing:0px;word-spacing:0px;fill:#000000;fill-opacity:1;stroke:none;stroke-width:0.95728862"
     id="text31">
    <path
       id="path56"
       style="font-size:183.79942322px;stroke-width:0.95728862"
       d="m 291.32973,138.81282 v 50.34741 h 22.79544 q 12.65416,0 19.56459,-6.55145 6.91043,-6.55144 6.91043,-18.66713 0,-12.02594 -6.91043,-18.57738 -6.91043,-6.55145 -19.56459,-6.55145 z m -18.12865,-14.8978 h 40.92409 q 22.5262,0 34.01366,10.23102 11.57721,10.14128 11.57721,29.79561 0,19.83383 -11.57721,29.9751 -11.48746,10.14128 -34.01366,10.14128 h -22.79544 v 53.84749 h -18.12865 z m -28.00069,10.32077 v 19.11586 q -9.15407,-8.52586 -19.56459,-12.74391 -10.32077,-4.21805 -21.98772,-4.21805 -22.97493,0 -35.18036,14.09009 -12.20543,14.00035 -12.20543,40.56511 0,26.47501 12.20543,40.5651 12.20543,14.00035 35.18036,14.00035 11.66695,0 21.98772,-4.21805 10.41052,-4.21806 19.56459,-12.74391 v 18.93637 q -9.51306,6.4617 -20.19281,9.69255 -10.59,3.23085 -22.43645,3.23085 -30.42383,0 -47.92427,-18.57739 -17.50043,-18.66713 -17.50043,-50.88587 0,-32.30849 17.50043,-50.88588 17.50044,-18.66713 47.92427,-18.66713 12.02594,0 22.61594,3.23085 10.67975,3.14111 20.01332,9.51306 z M 24.784678,123.91502 H 138.13364 v 15.25679 H 90.568358 v 118.73371 h -18.2184 V 139.17181 h -47.56528 z"
       inkscape:connector-curvature="0" />
  </g>
</svg>
