<?xml version="1.0" encoding="UTF-8" standalone="no"?>
<svg
   xmlns:dc="http://purl.org/dc/elements/1.1/"
   xmlns:cc="http://creativecommons.org/ns#"
   xmlns:rdf="http://www.w3.org/1999/02/22-rdf-syntax-ns#"
   xmlns:svg="http://www.w3.org/2000/svg"
   xmlns="http://www.w3.org/2000/svg"
   style="enable-background:new"
   id="svg6"
   version="1.1"
   width="384pt"
   viewBox="0 -1 384.50072 384"
   height="384pt">
  <metadata
     id="metadata12">
    <rdf:RDF>
      <cc:Work
         rdf:about="">
        <dc:format>image/svg+xml</dc:format>
        <dc:type
           rdf:resource="http://purl.org/dc/dcmitype/StillImage" />
        <dc:title></dc:title>
      </cc:Work>
    </rdf:RDF>
  </metadata>
  <defs
     id="defs10" />
  <path
     style="stroke-width:1.03790951"
     id="path2"
     d="m 374.39797,266.64735 c -5.58021,0 -10.10277,4.77336 -10.10277,10.663 v 52.62091 c -0.0198,17.66057 -13.57558,31.9723 -30.30826,31.98896 H 50.513791 C 33.781098,361.90356 20.225249,347.59183 20.205517,329.93126 V 52.064586 C 20.225257,34.408179 33.781098,20.096445 50.513791,20.075618 h 89.701449 c 5.58019,0 10.10275,-4.773353 10.10275,-10.662989 0,-5.88547 -4.52256,-10.662989 -10.10275,-10.662989 H 50.513791 C 22.628601,-1.21704 0.031571,22.633071 0,52.064586 V 329.93543 c 0.03156,29.43151 22.628601,53.28161 50.513791,53.31493 H 333.98694 c 27.88518,-0.0333 50.48221,-23.88342 50.51378,-53.31493 v -52.62508 c 0,-5.88964 -4.52256,-10.663 -10.10275,-10.663 z" />
  <g
     id="text15"
     style="font-style:normal;font-weight:normal;font-size:21.4233532px;line-height:1.25;font-family:sans-serif;letter-spacing:0px;word-spacing:0px;fill:#000000;fill-opacity:1;stroke:none;stroke-width:0.53558379"
     aria-label="232" />
  <g
     id="text31"
     style="font-style:normal;font-weight:normal;font-size:183.79942322px;line-height:1.25;font-family:sans-serif;letter-spacing:0px;word-spacing:0px;fill:#000000;fill-opacity:1;stroke:none;stroke-width:0.95728862"
     aria-label="TCP">
    <path
       d="m 352.05272,108.69137 v 27.71817 c -8.84899,-8.24172 -18.30526,-14.40132 -28.36883,-18.47879 -9.9768,-4.07747 -20.60426,-6.1162 -31.88239,-6.1162 -22.20923,0 -39.21318,6.81025 -51.01183,20.43075 -11.79865,13.53376 -17.69798,33.14034 -17.69798,58.81976 0,25.59268 5.89933,45.19926 17.69798,58.81976 11.79865,13.53376 28.8026,20.30062 51.01183,20.30062 11.27813,0 21.90559,-2.03873 31.88239,-6.1162 10.06357,-4.07748 19.51984,-10.23707 28.36883,-18.47879 v 27.45791 c -9.19601,6.24635 -18.95594,10.93111 -29.27976,14.05428 -10.23706,3.12318 -21.08141,4.68476 -32.53305,4.68476 -29.40988,0 -52.57342,-8.97912 -69.49061,-26.93737 -16.91718,-18.045 -25.37578,-42.63999 -25.37578,-73.78497 0,-31.23172 8.4586,-55.82671 25.37578,-73.78497 16.91719,-18.044995 40.08073,-27.067495 69.49061,-27.067495 11.62515,0 22.55626,1.56158 32.79331,4.68476 10.32382,3.03642 19.99699,7.634415 29.0195,13.794015 z M 32.447996,93.726165 H 196.80498 V 115.84864 H 127.83491 V 288.01357 H 101.41807 V 115.84864 H 32.447996 Z"
       style="font-size:183.79942322px;stroke-width:1.3880769"
       id="path56" />
  </g>
</svg>
