<?xml version="1.0" encoding="UTF-8" standalone="no"?>
<svg
   xmlns:dc="http://purl.org/dc/elements/1.1/"
   xmlns:cc="http://creativecommons.org/ns#"
   xmlns:rdf="http://www.w3.org/1999/02/22-rdf-syntax-ns#"
   xmlns:svg="http://www.w3.org/2000/svg"
   xmlns="http://www.w3.org/2000/svg"
   xmlns:sodipodi="http://sodipodi.sourceforge.net/DTD/sodipodi-0.dtd"
   xmlns:inkscape="http://www.inkscape.org/namespaces/inkscape"
   height="384pt"
   viewBox="0 -1 384.50072 384"
   width="384pt"
   version="1.1"
   id="svg6"
   sodipodi:docname="udp.svg"
   inkscape:version="0.92.4 5da689c313, 2019-01-14"
   style="enable-background:new">
  <metadata
     id="metadata12">
    <rdf:RDF>
      <cc:Work
         rdf:about="">
        <dc:format>image/svg+xml</dc:format>
        <dc:type
           rdf:resource="http://purl.org/dc/dcmitype/StillImage" />
        <dc:title />
      </cc:Work>
    </rdf:RDF>
  </metadata>
  <defs
     id="defs10" />
  <sodipodi:namedview
     pagecolor="#ffffff"
     bordercolor="#666666"
     borderopacity="1"
     objecttolerance="10"
     gridtolerance="10"
     guidetolerance="10"
     inkscape:pageopacity="0"
     inkscape:pageshadow="2"
     inkscape:window-width="1366"
     inkscape:window-height="715"
     id="namedview8"
     showgrid="false"
     inkscape:zoom="0.62422893"
     inkscape:cx="120.90198"
     inkscape:cy="212.26705"
     inkscape:window-x="0"
     inkscape:window-y="0"
     inkscape:window-maximized="1"
     inkscape:current-layer="svg6"
     inkscape:snap-text-baseline="false" />
  <path
     d="m 374.39797,266.64735 c -5.58021,0 -10.10277,4.77336 -10.10277,10.663 v 52.62091 c -0.0198,17.66057 -13.57558,31.9723 -30.30826,31.98896 H 50.513791 C 33.781098,361.90356 20.225249,347.59183 20.205517,329.93126 V 52.064586 C 20.225257,34.408179 33.781098,20.096445 50.513791,20.075618 h 89.701449 c 5.58019,0 10.10275,-4.773353 10.10275,-10.662989 0,-5.88547 -4.52256,-10.662989 -10.10275,-10.662989 H 50.513791 C 22.628601,-1.21704 0.031571,22.633071 0,52.064586 V 329.93543 c 0.03156,29.43151 22.628601,53.28161 50.513791,53.31493 H 333.98694 c 27.88518,-0.0333 50.48221,-23.88342 50.51378,-53.31493 v -52.62508 c 0,-5.88964 -4.52256,-10.663 -10.10275,-10.663 z"
     id="path2"
     inkscape:connector-curvature="0"
     style="stroke-width:1.03790951"
     sodipodi:nodetypes="ssccccccsssccccccss" />
  <g
     aria-label="232"
     style="font-style:normal;font-weight:normal;font-size:21.4233532px;line-height:1.25;font-family:sans-serif;letter-spacing:0px;word-spacing:0px;fill:#000000;fill-opacity:1;stroke:none;stroke-width:0.53558379"
     id="text15" />
  <g
     aria-label="UDP"
     style="font-style:normal;font-weight:normal;font-size:32.64717484px;line-height:1.25;font-family:sans-serif;letter-spacing:0px;word-spacing:0px;fill:#000000;fill-opacity:1;stroke:none;stroke-width:0.81617939"
     id="text12">
    <path
       d="m 36.806448,132.77071 h 15.532913 v 69.40075 q 0,18.36404 6.656963,26.47482 6.656963,8.03426 21.577742,8.03426 14.844262,0 21.501224,-8.03426 6.65696,-8.11078 6.65696,-26.47482 v -69.40075 h 15.53292 v 71.31367 q 0,22.34291 -11.09494,33.74392 -11.01842,11.401 -32.596164,11.401 -21.654259,0 -32.749197,-11.401 -11.018421,-11.40101 -11.018421,-33.74392 z"
       style="font-size:156.70643616px;stroke-width:0.81617939"
       id="path10"
       inkscape:connector-curvature="0" />
    <path
       d="m 168.72144,145.4725 v 88.83602 h 18.6701 q 23.6437,0 34.5856,-10.71235 11.01842,-10.71235 11.01842,-33.82043 0,-22.95505 -11.01842,-33.59088 -10.9419,-10.71236 -34.5856,-10.71236 z m -15.4564,-12.70179 h 31.75448 q 33.2083,0 48.74121,13.84954 15.53291,13.77303 15.53291,43.15549 0,29.53549 -15.60943,43.38503 -15.60943,13.84954 -48.66469,13.84954 h -31.75448 z"
       style="font-size:156.70643616px;stroke-width:0.81617939"
       id="path12"
       inkscape:connector-curvature="0" />
    <path
       d="m 289.38845,145.4725 v 42.92594 h 19.43527 q 10.78888,0 16.68067,-5.58573 5.89179,-5.58573 5.89179,-15.9155 0,-10.25325 -5.89179,-15.83898 -5.89179,-5.58573 -16.68067,-5.58573 z m -15.45639,-12.70179 h 34.89166 q 19.20573,0 28.99988,8.72292 9.87067,8.6464 9.87067,25.40358 0,16.91022 -9.87067,25.55662 -9.79415,8.6464 -28.99988,8.6464 h -19.43527 v 45.91008 h -15.45639 z"
       style="font-size:156.70643616px;stroke-width:0.81617939"
       id="path14"
       inkscape:connector-curvature="0" />
  </g>
</svg>
