<?xml version="1.0" encoding="UTF-8" standalone="no"?>
<!-- Generator: Adobe Illustrator 19.0.0, SVG Export Plug-In . SVG Version: 6.00 Build 0)  -->

<svg
   xmlns:dc="http://purl.org/dc/elements/1.1/"
   xmlns:cc="http://creativecommons.org/ns#"
   xmlns:rdf="http://www.w3.org/1999/02/22-rdf-syntax-ns#"
   xmlns:svg="http://www.w3.org/2000/svg"
   xmlns="http://www.w3.org/2000/svg"
   xmlns:sodipodi="http://sodipodi.sourceforge.net/DTD/sodipodi-0.dtd"
   xmlns:inkscape="http://www.inkscape.org/namespaces/inkscape"
   version="1.1"
   id="Capa_1"
   x="0px"
   y="0px"
   viewBox="0 0 512 512"
   style="enable-background:new 0 0 512 512;"
   xml:space="preserve"
   sodipodi:docname="usbport.svg"
   inkscape:version="0.92.4 5da689c313, 2019-01-14"><metadata
   id="metadata74"><rdf:RDF><cc:Work
       rdf:about=""><dc:format>image/svg+xml</dc:format><dc:type
         rdf:resource="http://purl.org/dc/dcmitype/StillImage" /></cc:Work></rdf:RDF></metadata><defs
   id="defs72" /><sodipodi:namedview
   pagecolor="#ffffff"
   bordercolor="#666666"
   borderopacity="1"
   objecttolerance="10"
   gridtolerance="10"
   guidetolerance="10"
   inkscape:pageopacity="0"
   inkscape:pageshadow="2"
   inkscape:window-width="1366"
   inkscape:window-height="715"
   id="namedview70"
   showgrid="false"
   inkscape:zoom="0.4609375"
   inkscape:cx="256"
   inkscape:cy="256"
   inkscape:window-x="0"
   inkscape:window-y="0"
   inkscape:window-maximized="1"
   inkscape:current-layer="Capa_1" />
<path
   style="fill:#303C42;"
   d="M469.333,106.667H42.667C19.146,106.667,0,125.802,0,149.333v213.333  c0,23.531,19.146,42.667,42.667,42.667h426.667c23.521,0,42.667-19.135,42.667-42.667V149.333  C512,125.802,492.854,106.667,469.333,106.667z"
   id="path2" />
<path
   style="fill:#E6E6E6;"
   d="M490.667,362.667c0,11.76-9.563,21.333-21.333,21.333H42.667c-11.771,0-21.333-9.573-21.333-21.333  V149.333c0-11.76,9.563-21.333,21.333-21.333h426.667c11.771,0,21.333,9.573,21.333,21.333V362.667z"
   id="path4" />
<path
   style="fill:#303C42;"
   d="M416,170.667H96c-17.646,0-32,14.354-32,32v106.667c0,17.646,14.354,32,32,32h320  c17.646,0,32-14.354,32-32V202.667C448,185.021,433.646,170.667,416,170.667z"
   id="path6" />
<linearGradient
   id="SVGID_1_"
   gradientUnits="userSpaceOnUse"
   x1="-37.1649"
   y1="636.9365"
   x2="-26.5011"
   y2="626.2727"
   gradientTransform="matrix(21.3333 0 0 -21.3333 996.3334 13791.667)">
	<stop
   offset="0"
   style="stop-color:#000000;stop-opacity:0.1"
   id="stop8" />
	<stop
   offset="1"
   style="stop-color:#000000;stop-opacity:0"
   id="stop10" />
</linearGradient>
<path
   style="fill:url(#SVGID_1_);"
   d="M441.401,183.422H441.4c4.082,5.372,6.6,11.992,6.6,19.245v106.667c0,17.646-14.354,32-32,32  H96c-8.354,0-15.906-3.292-21.611-8.552l0,0L125.608,384h343.725c11.771,0,21.333-9.573,21.333-21.333V232.688L441.401,183.422z"
   id="path13" />
<linearGradient
   id="SVGID_2_"
   gradientUnits="userSpaceOnUse"
   x1="-46.6449"
   y1="640.0523"
   x2="-22.7613"
   y2="628.9164"
   gradientTransform="matrix(21.3333 0 0 -21.3333 996.3334 13791.667)">
	<stop
   offset="0"
   style="stop-color:#FFFFFF;stop-opacity:0.2"
   id="stop15" />
	<stop
   offset="1"
   style="stop-color:#FFFFFF;stop-opacity:0"
   id="stop17" />
</linearGradient>
<path
   style="fill:url(#SVGID_2_);"
   d="M469.333,106.667H42.667C19.146,106.667,0,125.802,0,149.333v213.333  c0,23.531,19.146,42.667,42.667,42.667h426.667c23.521,0,42.667-19.135,42.667-42.667V149.333  C512,125.802,492.854,106.667,469.333,106.667z"
   id="path20" />
<path
   style="fill:#303C42;"
   d="M426.667,309.333c0,5.885-4.792,10.667-10.667,10.667H96c-5.875,0-10.667-4.781-10.667-10.667  V202.667C85.333,196.781,90.125,192,96,192h320c5.875,0,10.667,4.781,10.667,10.667V309.333z"
   id="path22" />
<linearGradient
   id="SVGID_3_"
   gradientUnits="userSpaceOnUse"
   x1="-40.0565"
   y1="639.8378"
   x2="-29.3498"
   y2="629.131"
   gradientTransform="matrix(21.3333 0 0 -21.3333 996.3334 13791.667)">
	<stop
   offset="0"
   style="stop-color:#000000;stop-opacity:0.5"
   id="stop24" />
	<stop
   offset="1"
   style="stop-color:#000000;stop-opacity:0"
   id="stop26" />
</linearGradient>
<path
   style="fill:url(#SVGID_3_);"
   d="M426.667,309.333c0,5.885-4.792,10.667-10.667,10.667H96c-5.875,0-10.667-4.781-10.667-10.667  V202.667C85.333,196.781,90.125,192,96,192h320c5.875,0,10.667,4.781,10.667,10.667V309.333z"
   id="path29" />
<path
   style="opacity:0.2;fill:#ececec;enable-background:new"
   d="M416,308.454H96c-5.875,0-10.667-4.781-10.667-10.667v11.546  C85.333,315.219,90.125,320,96,320h320c5.875,0,10.667-4.781,10.667-10.667v-11.546C426.667,303.673,421.875,308.454,416,308.454z"
   id="path31" />
<path
   style="fill:#f2f2f2"
   d="M394.667,213.333H117.333c-5.896,0-10.667,4.771-10.667,10.667v42.667  c0,5.896,4.771,10.667,10.667,10.667h32c0,5.896,4.771,10.667,10.667,10.667c5.896,0,10.667-4.771,10.667-10.667h42.667  c0,5.896,4.771,10.667,10.667,10.667c5.896,0,10.667-4.771,10.667-10.667h42.667c0,5.896,4.771,10.667,10.667,10.667  c5.896,0,10.667-4.771,10.667-10.667h42.667c0,5.896,4.771,10.667,10.667,10.667c5.896,0,10.667-4.771,10.667-10.667h32  c5.896,0,10.667-4.771,10.667-10.667V224C405.333,218.104,400.563,213.333,394.667,213.333z"
   id="path33" />
<rect
   x="128"
   y="234.667"
   style="fill:#01579B;"
   width="256"
   height="21.333"
   id="rect35" />
<rect
   x="128"
   y="234.667"
   style="opacity:0.2;fill:#FFFFFF;enable-background:new    ;"
   width="256"
   height="9.792"
   id="rect37" />
<g
   id="g39">
</g>
<g
   id="g41">
</g>
<g
   id="g43">
</g>
<g
   id="g45">
</g>
<g
   id="g47">
</g>
<g
   id="g49">
</g>
<g
   id="g51">
</g>
<g
   id="g53">
</g>
<g
   id="g55">
</g>
<g
   id="g57">
</g>
<g
   id="g59">
</g>
<g
   id="g61">
</g>
<g
   id="g63">
</g>
<g
   id="g65">
</g>
<g
   id="g67">
</g>
</svg>