<?xml version="1.0" encoding="UTF-8" standalone="no"?>
<!-- Generator: Adobe Illustrator 19.0.0, SVG Export Plug-In . SVG Version: 6.00 Build 0)  -->

<svg
   xmlns:dc="http://purl.org/dc/elements/1.1/"
   xmlns:cc="http://creativecommons.org/ns#"
   xmlns:rdf="http://www.w3.org/1999/02/22-rdf-syntax-ns#"
   xmlns:svg="http://www.w3.org/2000/svg"
   xmlns="http://www.w3.org/2000/svg"
   xmlns:sodipodi="http://sodipodi.sourceforge.net/DTD/sodipodi-0.dtd"
   xmlns:inkscape="http://www.inkscape.org/namespaces/inkscape"
   version="1.1"
   id="Capa_1"
   x="0px"
   y="0px"
   viewBox="0 0 512 512"
   xml:space="preserve"
   sodipodi:docname="a1.svg"
   width="512"
   height="512"
   inkscape:version="0.92.4 5da689c313, 2019-01-14"><metadata
   id="metadata57"><rdf:RDF><cc:Work
       rdf:about=""><dc:format>image/svg+xml</dc:format><dc:type
         rdf:resource="http://purl.org/dc/dcmitype/StillImage" /></cc:Work></rdf:RDF></metadata><defs
   id="defs55" /><sodipodi:namedview
   pagecolor="#ffffff"
   bordercolor="#666666"
   borderopacity="1"
   objecttolerance="10"
   gridtolerance="10"
   guidetolerance="10"
   inkscape:pageopacity="0"
   inkscape:pageshadow="2"
   inkscape:window-width="1366"
   inkscape:window-height="715"
   id="namedview53"
   showgrid="false"
   inkscape:zoom="0.4609375"
   inkscape:cx="-89.491521"
   inkscape:cy="209.8983"
   inkscape:window-x="0"
   inkscape:window-y="0"
   inkscape:window-maximized="1"
   inkscape:current-layer="Capa_1" />

















<path
   inkscape:connector-curvature="0"
   style="fill:#ff0000;stroke-width:21.33333206"
   d="M 256,0 A 256,256 0 0 0 0,256 256,256 0 0 0 256,512 256,256 0 0 0 512,256 256,256 0 0 0 256,0 M 143.08267,128 256,240.91733 368.91733,128 c 0,0 15.50934,15.27467 15.08267,15.08267 L 271.08267,256 384,368.91733 c 0,0 -14.95467,15.06134 -15.08267,15.08267 L 256,271.08267 143.08267,384 C 143.10397,383.89333 128,368.91733 128,368.91733 L 240.91733,256 128,143.08267 C 128.42667,143.10397 143.08267,128 143.08267,128"
   class="ColorScheme-NegativeText"
   id="path3" /></svg>